<?xml version="1.0" encoding="us-ascii" standalone="no"?><svg xmlns="http://www.w3.org/2000/svg" xmlns:xlink="http://www.w3.org/1999/xlink" contentStyleType="text/css" height="425px" preserveAspectRatio="none" style="width:735px;height:425px;background:#FFFFFF;" version="1.1" viewBox="0 0 735 425" width="735px" zoomAndPan="magnify"><defs/><g><!--cluster exec--><g id="cluster_exec"><path d="M8.5,6 L45.5,6 A3.75,3.75 0 0 1 48,8.5 L55,28.2969 L725.5,28.2969 A2.5,2.5 0 0 1 728,30.7969 L728,292.5 A2.5,2.5 0 0 1 725.5,295 L8.5,295 A2.5,2.5 0 0 1 6,292.5 L6,8.5 A2.5,2.5 0 0 1 8.5,6 " fill="none" style="stroke:#000000;stroke-width:1.5;"/><line style="stroke:#000000;stroke-width:1.5;" x1="6" x2="55" y1="28.2969" y2="28.2969"/><text fill="#000000" font-family="sans-serif" font-size="14" font-weight="bold" lengthAdjust="spacing" textLength="36" x="10" y="20.9951">exec</text></g><!--cluster storage--><g id="cluster_storage"><path d="M204.5,319 L268.5,319 A3.75,3.75 0 0 1 271,321.5 L278,341.2969 L321.5,341.2969 A2.5,2.5 0 0 1 324,343.7969 L324,415.5 A2.5,2.5 0 0 1 321.5,418 L204.5,418 A2.5,2.5 0 0 1 202,415.5 L202,321.5 A2.5,2.5 0 0 1 204.5,319 " fill="none" style="stroke:#000000;stroke-width:1.5;"/><line style="stroke:#000000;stroke-width:1.5;" x1="202" x2="278" y1="341.2969" y2="341.2969"/><text fill="#000000" font-family="sans-serif" font-size="14" font-weight="bold" lengthAdjust="spacing" textLength="63" x="206" y="333.9951">storage</text></g><!--cluster search--><g id="cluster_search"><path d="M591.5,319 L646.5,319 A3.75,3.75 0 0 1 649,321.5 L656,341.2969 L700.5,341.2969 A2.5,2.5 0 0 1 703,343.7969 L703,415.5 A2.5,2.5 0 0 1 700.5,418 L591.5,418 A2.5,2.5 0 0 1 589,415.5 L589,321.5 A2.5,2.5 0 0 1 591.5,319 " fill="none" style="stroke:#000000;stroke-width:1.5;"/><line style="stroke:#000000;stroke-width:1.5;" x1="589" x2="656" y1="341.2969" y2="341.2969"/><text fill="#000000" font-family="sans-serif" font-size="14" font-weight="bold" lengthAdjust="spacing" textLength="54" x="593" y="333.9951">search</text></g><!--class Command--><g id="elem_Command"><rect codeLine="1" fill="#F1F1F1" height="80.5938" id="Command" rx="2.5" ry="2.5" style="stroke:#181818;stroke-width:0.5;" width="282" x="193" y="41"/><ellipse cx="292.75" cy="57" fill="#B4A7E5" rx="11" ry="11" style="stroke:#181818;stroke-width:1.0;"/><path d="M293.7031,53.7813 L295.4219,53.7813 C295.8125,53.7813 296,53.75 296.125,53.6719 C296.3906,53.5156 296.5313,53.2344 296.5313,52.9375 C296.5313,52.6719 296.4219,52.4063 296.1875,52.2344 C296.0156,52.125 295.875,52.0938 295.4219,52.0938 L290.2813,52.0938 C289.8438,52.0938 289.7188,52.1094 289.5625,52.2031 C289.3125,52.3594 289.1563,52.6563 289.1563,52.9375 C289.1563,53.2188 289.2969,53.4688 289.5156,53.6406 C289.6719,53.75 289.8594,53.7813 290.2813,53.7813 L292,53.7813 L292,60.2969 L290.2813,60.2969 C289.8438,60.2969 289.7188,60.3125 289.5625,60.4219 C289.3125,60.5781 289.1563,60.8594 289.1563,61.1563 C289.1563,61.4063 289.2969,61.6719 289.5156,61.8281 C289.6719,61.9531 289.875,62 290.2813,62 L295.4219,62 C296.1719,62 296.5313,61.7188 296.5313,61.1563 C296.5313,60.875 296.4219,60.625 296.1875,60.4531 C296.0156,60.3281 295.875,60.2969 295.4219,60.2969 L293.7031,60.2969 L293.7031,53.7813 Z " fill="#000000"/><text fill="#000000" font-family="sans-serif" font-size="14" font-style="italic" lengthAdjust="spacing" textLength="74" x="313.25" y="61.8467">Command</text><line style="stroke:#181818;stroke-width:0.5;" x1="194" x2="474" y1="73" y2="73"/><line style="stroke:#181818;stroke-width:0.5;" x1="194" x2="474" y1="81" y2="81"/><text fill="#000000" font-family="sans-serif" font-size="14" lengthAdjust="spacing" textLength="51" x="199" y="97.9951">Name()</text><text fill="#000000" font-family="sans-serif" font-size="14" lengthAdjust="spacing" textLength="270" x="199" y="114.292">exec(storage.Storage, search.Engine)</text></g><!--class SetCmd--><g id="elem_SetCmd"><rect codeLine="6" fill="#F1F1F1" height="64.2969" id="SetCmd" rx="2.5" ry="2.5" style="stroke:#181818;stroke-width:0.5;" width="90" x="22" y="198.5"/><ellipse cx="37" cy="214.5" fill="#ADD1B2" rx="11" ry="11" style="stroke:#181818;stroke-width:1.0;"/><path d="M39.3438,210.1719 C38.4063,209.7344 37.8125,209.5938 36.9375,209.5938 C34.3125,209.5938 32.3125,211.6719 32.3125,214.3906 L32.3125,215.5156 C32.3125,218.0938 34.4219,219.9844 37.3125,219.9844 C38.5313,219.9844 39.6875,219.6875 40.4375,219.1406 C41.0156,218.7344 41.3438,218.2813 41.3438,217.8906 C41.3438,217.4375 40.9531,217.0469 40.4844,217.0469 C40.2656,217.0469 40.0625,217.125 39.875,217.3125 C39.4219,217.7969 39.4219,217.7969 39.2344,217.8906 C38.8125,218.1563 38.125,218.2813 37.3594,218.2813 C35.3125,218.2813 34.0156,217.1875 34.0156,215.4844 L34.0156,214.3906 C34.0156,212.6094 35.2656,211.2969 37,211.2969 C37.5781,211.2969 38.1875,211.4531 38.6563,211.7031 C39.1406,211.9844 39.3125,212.2031 39.4063,212.6094 C39.4688,213.0156 39.5,213.1406 39.6406,213.2656 C39.7813,213.4063 40.0156,213.5156 40.2344,213.5156 C40.5,213.5156 40.7656,213.375 40.9375,213.1563 C41.0469,213 41.0781,212.8125 41.0781,212.3906 L41.0781,210.9688 C41.0781,210.5313 41.0625,210.4063 40.9688,210.25 C40.8125,209.9844 40.5313,209.8438 40.2344,209.8438 C39.9375,209.8438 39.7344,209.9375 39.5156,210.25 L39.3438,210.1719 Z " fill="#000000"/><text fill="#000000" font-family="sans-serif" font-size="14" lengthAdjust="spacing" textLength="58" x="51" y="219.3467">SetCmd</text><line style="stroke:#181818;stroke-width:0.5;" x1="23" x2="111" y1="230.5" y2="230.5"/><text fill="#000000" font-family="sans-serif" font-size="14" lengthAdjust="spacing" textLength="78" x="28" y="247.4951">Key: string</text><line style="stroke:#181818;stroke-width:0.5;" x1="23" x2="111" y1="254.7969" y2="254.7969"/></g><!--class DelCmd--><g id="elem_DelCmd"><rect codeLine="10" fill="#F1F1F1" height="64.2969" id="DelCmd" rx="2.5" ry="2.5" style="stroke:#181818;stroke-width:0.5;" width="90" x="147" y="198.5"/><ellipse cx="162.45" cy="214.5" fill="#ADD1B2" rx="11" ry="11" style="stroke:#181818;stroke-width:1.0;"/><path d="M164.7938,210.1719 C163.8563,209.7344 163.2625,209.5938 162.3875,209.5938 C159.7625,209.5938 157.7625,211.6719 157.7625,214.3906 L157.7625,215.5156 C157.7625,218.0938 159.8719,219.9844 162.7625,219.9844 C163.9813,219.9844 165.1375,219.6875 165.8875,219.1406 C166.4656,218.7344 166.7938,218.2813 166.7938,217.8906 C166.7938,217.4375 166.4031,217.0469 165.9344,217.0469 C165.7156,217.0469 165.5125,217.125 165.325,217.3125 C164.8719,217.7969 164.8719,217.7969 164.6844,217.8906 C164.2625,218.1563 163.575,218.2813 162.8094,218.2813 C160.7625,218.2813 159.4656,217.1875 159.4656,215.4844 L159.4656,214.3906 C159.4656,212.6094 160.7156,211.2969 162.45,211.2969 C163.0281,211.2969 163.6375,211.4531 164.1063,211.7031 C164.5906,211.9844 164.7625,212.2031 164.8563,212.6094 C164.9188,213.0156 164.95,213.1406 165.0906,213.2656 C165.2313,213.4063 165.4656,213.5156 165.6844,213.5156 C165.95,213.5156 166.2156,213.375 166.3875,213.1563 C166.4969,213 166.5281,212.8125 166.5281,212.3906 L166.5281,210.9688 C166.5281,210.5313 166.5125,210.4063 166.4188,210.25 C166.2625,209.9844 165.9813,209.8438 165.6844,209.8438 C165.3875,209.8438 165.1844,209.9375 164.9656,210.25 L164.7938,210.1719 Z " fill="#000000"/><text fill="#000000" font-family="sans-serif" font-size="14" lengthAdjust="spacing" textLength="57" x="176.55" y="219.3467">DelCmd</text><line style="stroke:#181818;stroke-width:0.5;" x1="148" x2="236" y1="230.5" y2="230.5"/><text fill="#000000" font-family="sans-serif" font-size="14" lengthAdjust="spacing" textLength="78" x="153" y="247.4951">Key: string</text><line style="stroke:#181818;stroke-width:0.5;" x1="148" x2="236" y1="254.7969" y2="254.7969"/></g><!--class HSetCmd--><g id="elem_HSetCmd"><rect codeLine="14" fill="#F1F1F1" height="80.5938" id="HSetCmd" rx="2.5" ry="2.5" style="stroke:#181818;stroke-width:0.5;" width="123" x="272.5" y="190"/><ellipse cx="297.85" cy="206" fill="#ADD1B2" rx="11" ry="11" style="stroke:#181818;stroke-width:1.0;"/><path d="M300.1938,201.6719 C299.2563,201.2344 298.6625,201.0938 297.7875,201.0938 C295.1625,201.0938 293.1625,203.1719 293.1625,205.8906 L293.1625,207.0156 C293.1625,209.5938 295.2719,211.4844 298.1625,211.4844 C299.3813,211.4844 300.5375,211.1875 301.2875,210.6406 C301.8656,210.2344 302.1938,209.7813 302.1938,209.3906 C302.1938,208.9375 301.8031,208.5469 301.3344,208.5469 C301.1156,208.5469 300.9125,208.625 300.725,208.8125 C300.2719,209.2969 300.2719,209.2969 300.0844,209.3906 C299.6625,209.6563 298.975,209.7813 298.2094,209.7813 C296.1625,209.7813 294.8656,208.6875 294.8656,206.9844 L294.8656,205.8906 C294.8656,204.1094 296.1156,202.7969 297.85,202.7969 C298.4281,202.7969 299.0375,202.9531 299.5063,203.2031 C299.9906,203.4844 300.1625,203.7031 300.2563,204.1094 C300.3188,204.5156 300.35,204.6406 300.4906,204.7656 C300.6313,204.9063 300.8656,205.0156 301.0844,205.0156 C301.35,205.0156 301.6156,204.875 301.7875,204.6563 C301.8969,204.5 301.9281,204.3125 301.9281,203.8906 L301.9281,202.4688 C301.9281,202.0313 301.9125,201.9063 301.8188,201.75 C301.6625,201.4844 301.3813,201.3438 301.0844,201.3438 C300.7875,201.3438 300.5844,201.4375 300.3656,201.75 L300.1938,201.6719 Z " fill="#000000"/><text fill="#000000" font-family="sans-serif" font-size="14" lengthAdjust="spacing" textLength="68" x="314.15" y="210.8467">HSetCmd</text><line style="stroke:#181818;stroke-width:0.5;" x1="273.5" x2="394.5" y1="222" y2="222"/><text fill="#000000" font-family="sans-serif" font-size="14" lengthAdjust="spacing" textLength="78" x="278.5" y="238.9951">Key: string</text><text fill="#000000" font-family="sans-serif" font-size="14" lengthAdjust="spacing" textLength="111" x="278.5" y="255.292">Args: HSetArg[]</text><line style="stroke:#181818;stroke-width:0.5;" x1="273.5" x2="394.5" y1="262.5938" y2="262.5938"/></g><!--class HDelCmd--><g id="elem_HDelCmd"><rect codeLine="19" fill="#F1F1F1" height="80.5938" id="HDelCmd" rx="2.5" ry="2.5" style="stroke:#181818;stroke-width:0.5;" width="114" x="431" y="190"/><ellipse cx="452.75" cy="206" fill="#ADD1B2" rx="11" ry="11" style="stroke:#181818;stroke-width:1.0;"/><path d="M455.0938,201.6719 C454.1563,201.2344 453.5625,201.0938 452.6875,201.0938 C450.0625,201.0938 448.0625,203.1719 448.0625,205.8906 L448.0625,207.0156 C448.0625,209.5938 450.1719,211.4844 453.0625,211.4844 C454.2813,211.4844 455.4375,211.1875 456.1875,210.6406 C456.7656,210.2344 457.0938,209.7813 457.0938,209.3906 C457.0938,208.9375 456.7031,208.5469 456.2344,208.5469 C456.0156,208.5469 455.8125,208.625 455.625,208.8125 C455.1719,209.2969 455.1719,209.2969 454.9844,209.3906 C454.5625,209.6563 453.875,209.7813 453.1094,209.7813 C451.0625,209.7813 449.7656,208.6875 449.7656,206.9844 L449.7656,205.8906 C449.7656,204.1094 451.0156,202.7969 452.75,202.7969 C453.3281,202.7969 453.9375,202.9531 454.4063,203.2031 C454.8906,203.4844 455.0625,203.7031 455.1563,204.1094 C455.2188,204.5156 455.25,204.6406 455.3906,204.7656 C455.5313,204.9063 455.7656,205.0156 455.9844,205.0156 C456.25,205.0156 456.5156,204.875 456.6875,204.6563 C456.7969,204.5 456.8281,204.3125 456.8281,203.8906 L456.8281,202.4688 C456.8281,202.0313 456.8125,201.9063 456.7188,201.75 C456.5625,201.4844 456.2813,201.3438 455.9844,201.3438 C455.6875,201.3438 455.4844,201.4375 455.2656,201.75 L455.0938,201.6719 Z " fill="#000000"/><text fill="#000000" font-family="sans-serif" font-size="14" lengthAdjust="spacing" textLength="67" x="468.25" y="210.8467">HDelCmd</text><line style="stroke:#181818;stroke-width:0.5;" x1="432" x2="544" y1="222" y2="222"/><text fill="#000000" font-family="sans-serif" font-size="14" lengthAdjust="spacing" textLength="78" x="437" y="238.9951">Key: string</text><text fill="#000000" font-family="sans-serif" font-size="14" lengthAdjust="spacing" textLength="102" x="437" y="255.292">Fields: string[]</text><line style="stroke:#181818;stroke-width:0.5;" x1="432" x2="544" y1="262.5938" y2="262.5938"/></g><!--class FtCreateCmd--><g id="elem_FtCreateCmd"><rect codeLine="24" fill="#F1F1F1" height="96.8906" id="FtCreateCmd" rx="2.5" ry="2.5" style="stroke:#181818;stroke-width:0.5;" width="131" x="580.5" y="182"/><ellipse cx="596.4" cy="198" fill="#ADD1B2" rx="11" ry="11" style="stroke:#181818;stroke-width:1.0;"/><path d="M598.7438,193.6719 C597.8063,193.2344 597.2125,193.0938 596.3375,193.0938 C593.7125,193.0938 591.7125,195.1719 591.7125,197.8906 L591.7125,199.0156 C591.7125,201.5938 593.8219,203.4844 596.7125,203.4844 C597.9313,203.4844 599.0875,203.1875 599.8375,202.6406 C600.4156,202.2344 600.7438,201.7813 600.7438,201.3906 C600.7438,200.9375 600.3531,200.5469 599.8844,200.5469 C599.6656,200.5469 599.4625,200.625 599.275,200.8125 C598.8219,201.2969 598.8219,201.2969 598.6344,201.3906 C598.2125,201.6563 597.525,201.7813 596.7594,201.7813 C594.7125,201.7813 593.4156,200.6875 593.4156,198.9844 L593.4156,197.8906 C593.4156,196.1094 594.6656,194.7969 596.4,194.7969 C596.9781,194.7969 597.5875,194.9531 598.0563,195.2031 C598.5406,195.4844 598.7125,195.7031 598.8063,196.1094 C598.8688,196.5156 598.9,196.6406 599.0406,196.7656 C599.1813,196.9063 599.4156,197.0156 599.6344,197.0156 C599.9,197.0156 600.1656,196.875 600.3375,196.6563 C600.4469,196.5 600.4781,196.3125 600.4781,195.8906 L600.4781,194.4688 C600.4781,194.0313 600.4625,193.9063 600.3688,193.75 C600.2125,193.4844 599.9313,193.3438 599.6344,193.3438 C599.3375,193.3438 599.1344,193.4375 598.9156,193.75 L598.7438,193.6719 Z " fill="#000000"/><text fill="#000000" font-family="sans-serif" font-size="14" lengthAdjust="spacing" textLength="97" x="610.6" y="202.8467">FtCreateCmd</text><line style="stroke:#181818;stroke-width:0.5;" x1="581.5" x2="710.5" y1="214" y2="214"/><text fill="#000000" font-family="sans-serif" font-size="14" lengthAdjust="spacing" textLength="92" x="586.5" y="230.9951">Name: string</text><text fill="#000000" font-family="sans-serif" font-size="14" lengthAdjust="spacing" textLength="119" x="586.5" y="247.292">Prefixes: string[]</text><text fill="#000000" font-family="sans-serif" font-size="14" lengthAdjust="spacing" textLength="102" x="586.5" y="263.5889">Fields: string[]</text><line style="stroke:#181818;stroke-width:0.5;" x1="581.5" x2="710.5" y1="270.8906" y2="270.8906"/></g><!--class Storage--><g id="elem_Storage"><rect codeLine="30" fill="#F1F1F1" height="48" id="Storage" rx="2.5" ry="2.5" style="stroke:#181818;stroke-width:0.5;" width="89" x="218.5" y="354"/><ellipse cx="233.5" cy="370" fill="#ADD1B2" rx="11" ry="11" style="stroke:#181818;stroke-width:1.0;"/><path d="M235.8438,365.6719 C234.9063,365.2344 234.3125,365.0938 233.4375,365.0938 C230.8125,365.0938 228.8125,367.1719 228.8125,369.8906 L228.8125,371.0156 C228.8125,373.5938 230.9219,375.4844 233.8125,375.4844 C235.0313,375.4844 236.1875,375.1875 236.9375,374.6406 C237.5156,374.2344 237.8438,373.7813 237.8438,373.3906 C237.8438,372.9375 237.4531,372.5469 236.9844,372.5469 C236.7656,372.5469 236.5625,372.625 236.375,372.8125 C235.9219,373.2969 235.9219,373.2969 235.7344,373.3906 C235.3125,373.6563 234.625,373.7813 233.8594,373.7813 C231.8125,373.7813 230.5156,372.6875 230.5156,370.9844 L230.5156,369.8906 C230.5156,368.1094 231.7656,366.7969 233.5,366.7969 C234.0781,366.7969 234.6875,366.9531 235.1563,367.2031 C235.6406,367.4844 235.8125,367.7031 235.9063,368.1094 C235.9688,368.5156 236,368.6406 236.1406,368.7656 C236.2813,368.9063 236.5156,369.0156 236.7344,369.0156 C237,369.0156 237.2656,368.875 237.4375,368.6563 C237.5469,368.5 237.5781,368.3125 237.5781,367.8906 L237.5781,366.4688 C237.5781,366.0313 237.5625,365.9063 237.4688,365.75 C237.3125,365.4844 237.0313,365.3438 236.7344,365.3438 C236.4375,365.3438 236.2344,365.4375 236.0156,365.75 L235.8438,365.6719 Z " fill="#000000"/><text fill="#000000" font-family="sans-serif" font-size="14" lengthAdjust="spacing" textLength="57" x="247.5" y="374.8467">Storage</text><line style="stroke:#181818;stroke-width:0.5;" x1="219.5" x2="306.5" y1="386" y2="386"/><line style="stroke:#181818;stroke-width:0.5;" x1="219.5" x2="306.5" y1="394" y2="394"/></g><!--class Engine--><g id="elem_Engine"><rect codeLine="31" fill="#F1F1F1" height="48" id="Engine" rx="2.5" ry="2.5" style="stroke:#181818;stroke-width:0.5;" width="81" x="605.5" y="354"/><ellipse cx="620.5" cy="370" fill="#ADD1B2" rx="11" ry="11" style="stroke:#181818;stroke-width:1.0;"/><path d="M622.8438,365.6719 C621.9063,365.2344 621.3125,365.0938 620.4375,365.0938 C617.8125,365.0938 615.8125,367.1719 615.8125,369.8906 L615.8125,371.0156 C615.8125,373.5938 617.9219,375.4844 620.8125,375.4844 C622.0313,375.4844 623.1875,375.1875 623.9375,374.6406 C624.5156,374.2344 624.8438,373.7813 624.8438,373.3906 C624.8438,372.9375 624.4531,372.5469 623.9844,372.5469 C623.7656,372.5469 623.5625,372.625 623.375,372.8125 C622.9219,373.2969 622.9219,373.2969 622.7344,373.3906 C622.3125,373.6563 621.625,373.7813 620.8594,373.7813 C618.8125,373.7813 617.5156,372.6875 617.5156,370.9844 L617.5156,369.8906 C617.5156,368.1094 618.7656,366.7969 620.5,366.7969 C621.0781,366.7969 621.6875,366.9531 622.1563,367.2031 C622.6406,367.4844 622.8125,367.7031 622.9063,368.1094 C622.9688,368.5156 623,368.6406 623.1406,368.7656 C623.2813,368.9063 623.5156,369.0156 623.7344,369.0156 C624,369.0156 624.2656,368.875 624.4375,368.6563 C624.5469,368.5 624.5781,368.3125 624.5781,367.8906 L624.5781,366.4688 C624.5781,366.0313 624.5625,365.9063 624.4688,365.75 C624.3125,365.4844 624.0313,365.3438 623.7344,365.3438 C623.4375,365.3438 623.2344,365.4375 623.0156,365.75 L622.8438,365.6719 Z " fill="#000000"/><text fill="#000000" font-family="sans-serif" font-size="14" lengthAdjust="spacing" textLength="49" x="634.5" y="374.8467">Engine</text><line style="stroke:#181818;stroke-width:0.5;" x1="606.5" x2="685.5" y1="386" y2="386"/><line style="stroke:#181818;stroke-width:0.5;" x1="606.5" x2="685.5" y1="394" y2="394"/></g><!--reverse link Command to SetCmd--><g id="link_Command_SetCmd"><path codeLine="33" d="M224.388,130.667 C192.893,145.843 158.974,163.507 129,182 C121.037,186.913 112.863,192.628 105.169,198.356 " fill="none" id="Command-backto-SetCmd" style="stroke:#181818;stroke-width:1.0;"/><polygon fill="none" points="221.533,124.274,242.603,122.033,227.529,136.925,221.533,124.274" style="stroke:#181818;stroke-width:1.0;"/></g><!--reverse link Command to DelCmd--><g id="link_Command_DelCmd"><path codeLine="34" d="M281.53,136.818 C261.6,157.449 239.576,180.249 222.359,198.072 " fill="none" id="Command-backto-DelCmd" style="stroke:#181818;stroke-width:1.0;"/><polygon fill="none" points="276.643,131.802,295.573,122.28,286.712,141.528,276.643,131.802" style="stroke:#181818;stroke-width:1.0;"/></g><!--reverse link Command to HSetCmd--><g id="link_Command_HSetCmd"><path codeLine="35" d="M334,142.517 C334,158.5 334,175.363 334,189.943 " fill="none" id="Command-backto-HSetCmd" style="stroke:#181818;stroke-width:1.0;"/><polygon fill="none" points="327,142.28,334,122.28,341,142.28,327,142.28" style="stroke:#181818;stroke-width:1.0;"/></g><!--reverse link Command to HDelCmd--><g id="link_Command_HDelCmd"><path codeLine="36" d="M390.161,136.108 C408.811,153.911 429.226,173.397 446.559,189.943 " fill="none" id="Command-backto-HDelCmd" style="stroke:#181818;stroke-width:1.0;"/><polygon fill="none" points="385.308,141.153,375.675,122.28,394.975,131.026,385.308,141.153" style="stroke:#181818;stroke-width:1.0;"/></g><!--reverse link Command to FtCreateCmd--><g id="link_Command_FtCreateCmd"><path codeLine="37" d="M449.924,129.935 C486.492,145.677 526.786,163.839 563,182 C568.64,184.828 574.434,187.863 580.212,190.982 " fill="none" id="Command-backto-FtCreateCmd" style="stroke:#181818;stroke-width:1.0;"/><polygon fill="none" points="447.112,136.345,431.465,122.056,452.608,123.469,447.112,136.345" style="stroke:#181818;stroke-width:1.0;"/></g><!--link SetCmd to Storage--><g id="link_SetCmd_Storage"><path codeLine="39" d="M89.9161,262.571 C100.798,276.019 114.569,291.319 129,303 C156.266,325.072 191.04,344.0561 218.331,357.269 " fill="none" id="SetCmd-Storage" style="stroke:#181818;stroke-width:1.0;"/></g><!--link DelCmd to Storage--><g id="link_DelCmd_Storage"><path codeLine="40" d="M207.231,262.713 C220.596,290.102 239.725,329.302 251.747,353.9401 " fill="none" id="DelCmd-Storage" style="stroke:#181818;stroke-width:1.0;"/></g><!--link HSetCmd to Storage--><g id="link_HSetCmd_Storage"><path codeLine="41" d="M314.599,271.259 C301.707,297.679 285.22,331.464 274.398,353.6431 " fill="none" id="HSetCmd-Storage" style="stroke:#181818;stroke-width:1.0;"/></g><!--link HDelCmd to Storage--><g id="link_HDelCmd_Storage"><path codeLine="42" d="M451.032,271.004 C439.481,282.136 426.272,293.726 413,303 C379.914,326.12 338.535,345.9491 307.623,359.2453 " fill="none" id="HDelCmd-Storage" style="stroke:#181818;stroke-width:1.0;"/></g><!--link FtCreateCmd to Engine--><g id="link_FtCreateCmd_Engine"><path codeLine="43" d="M646,279.142 C646,304.172 646,333.72 646,353.749 " fill="none" id="FtCreateCmd-Engine" style="stroke:#181818;stroke-width:1.0;"/></g><!--SRC=[XP512eCm44NNpIbcgL0zW7HJR2LGA0MNfOkWemreX2GBIzkxLucMD2MwoZ1_tYVpXmkDic850lPOn6dNjaoKy2G0PzPY40x5g0HATvBL6EVctO929ejxV1Gr5nYIDo55mvGoFZdgj3Ks9tmaeBJaedQ63jYi3r6F5S1UrYg1KH-gwytbFEu06SUcL7FZ3ynqAf5fdE4nXY-zkKYiU8ysll4REg7DNJivGdw2txsYo8xGfvhjV2fTXkaoRIKm_MwwmJ3WRcGVqYVJ5PokyFP5nXaxlWy0]--></g></svg>