<?xml version="1.0" encoding="us-ascii" standalone="no"?><svg xmlns="http://www.w3.org/2000/svg" xmlns:xlink="http://www.w3.org/1999/xlink" contentStyleType="text/css" height="364px" preserveAspectRatio="none" style="width:700px;height:364px;background:#FFFFFF;" version="1.1" viewBox="0 0 700 364" width="700px" zoomAndPan="magnify"><defs/><g><g id="elem_Hash"><rect fill="#F1F1F1" height="81.1875" style="stroke:#181818;stroke-width:0.5;" width="154" x="165.5" y="276"/><text fill="#000000" font-family="sans-serif" font-size="14" lengthAdjust="spacing" textLength="34" x="225.5" y="290.9951">Hash</text><line style="stroke:#181818;stroke-width:1.0;" x1="165.5" x2="319.5" y1="296.2969" y2="296.2969"/><text fill="#000000" font-family="sans-serif" font-size="14" lengthAdjust="spacing" textLength="55" x="170.5" y="311.292">@field1</text><text fill="#000000" font-family="sans-serif" font-size="14" lengthAdjust="spacing" textLength="79" x="235.5" y="311.292">Hello world</text><line style="stroke:#181818;stroke-width:1.0;" x1="230.5" x2="230.5" y1="296.2969" y2="316.5938"/><line style="stroke:#181818;stroke-width:1.0;" x1="165.5" x2="319.5" y1="316.5938" y2="316.5938"/><text fill="#000000" font-family="sans-serif" font-size="14" lengthAdjust="spacing" textLength="54" x="171" y="331.5889">@field2</text><text fill="#000000" font-family="sans-serif" font-size="14" lengthAdjust="spacing" textLength="22" x="235.5" y="331.5889">2.0</text><line style="stroke:#181818;stroke-width:1.0;" x1="230.5" x2="230.5" y1="316.5938" y2="336.8906"/><line style="stroke:#181818;stroke-width:1.0;" x1="165.5" x2="319.5" y1="336.8906" y2="336.8906"/><text fill="#000000" font-family="sans-serif" font-size="14" lengthAdjust="spacing" textLength="55" x="170.5" y="351.8857">@field3</text><text fill="#000000" font-family="sans-serif" font-size="14" lengthAdjust="spacing" textLength="33" x="235.5" y="351.8857">tag1</text><line style="stroke:#181818;stroke-width:1.0;" x1="230.5" x2="230.5" y1="336.8906" y2="357.1875"/></g><g id="elem_HashV2"><rect fill="#F1F1F1" height="81.1875" style="stroke:#181818;stroke-width:0.5;" width="160" x="533.5" y="276"/><text fill="#000000" font-family="sans-serif" font-size="14" lengthAdjust="spacing" textLength="34" x="596.5" y="290.9951">Hash</text><line style="stroke:#181818;stroke-width:1.0;" x1="533.5" x2="693.5" y1="296.2969" y2="296.2969"/><text fill="#000000" font-family="sans-serif" font-size="14" lengthAdjust="spacing" textLength="55" x="538.5" y="311.292">@field1</text><text fill="#000000" font-family="sans-serif" font-size="14" lengthAdjust="spacing" textLength="85" x="603.5" y="311.292">Hi everyone</text><line style="stroke:#181818;stroke-width:1.0;" x1="598.5" x2="598.5" y1="296.2969" y2="316.5938"/><line style="stroke:#181818;stroke-width:1.0;" x1="533.5" x2="693.5" y1="316.5938" y2="316.5938"/><text fill="#000000" font-family="sans-serif" font-size="14" lengthAdjust="spacing" textLength="54" x="539" y="331.5889">@field2</text><text fill="#000000" font-family="sans-serif" font-size="14" lengthAdjust="spacing" textLength="22" x="603.5" y="331.5889">2.0</text><line style="stroke:#181818;stroke-width:1.0;" x1="598.5" x2="598.5" y1="316.5938" y2="336.8906"/><line style="stroke:#181818;stroke-width:1.0;" x1="533.5" x2="693.5" y1="336.8906" y2="336.8906"/><text fill="#000000" font-family="sans-serif" font-size="14" lengthAdjust="spacing" textLength="55" x="538.5" y="351.8857">@field3</text><text fill="#000000" font-family="sans-serif" font-size="14" lengthAdjust="spacing" textLength="33" x="603.5" y="351.8857">tag1</text><line style="stroke:#181818;stroke-width:1.0;" x1="598.5" x2="598.5" y1="336.8906" y2="357.1875"/></g><g id="elem_Document"><rect fill="#F1F1F1" height="77.1875" style="stroke:#181818;stroke-width:0.5;" width="107" x="7" y="278"/><text fill="#000000" font-family="sans-serif" font-size="14" lengthAdjust="spacing" textLength="75" x="23" y="292.9951">Document</text><line style="stroke:#181818;stroke-width:0.5;" x1="8" x2="113" y1="298.2969" y2="298.2969"/><text fill="#000000" font-family="sans-serif" font-size="14" lengthAdjust="spacing" textLength="77" x="13" y="315.292">key: string</text><text fill="#000000" font-family="sans-serif" font-size="14" lengthAdjust="spacing" textLength="33" x="13" y="331.5889">hash</text><text fill="#000000" font-family="sans-serif" font-size="14" lengthAdjust="spacing" textLength="95" x="13" y="347.8857">deleted: true</text></g><g id="elem_DocumentV2"><rect fill="#F1F1F1" height="77.1875" style="stroke:#181818;stroke-width:0.5;" width="111" x="371" y="278"/><text fill="#000000" font-family="sans-serif" font-size="14" lengthAdjust="spacing" textLength="97" x="378" y="292.9951">Document V2</text><line style="stroke:#181818;stroke-width:0.5;" x1="372" x2="481" y1="298.2969" y2="298.2969"/><text fill="#000000" font-family="sans-serif" font-size="14" lengthAdjust="spacing" textLength="26" x="377" y="315.292">key</text><text fill="#000000" font-family="sans-serif" font-size="14" lengthAdjust="spacing" textLength="33" x="377" y="331.5889">hash</text><text fill="#000000" font-family="sans-serif" font-size="14" lengthAdjust="spacing" textLength="99" x="377" y="347.8857">deleted: false</text></g><g id="elem_Storage"><rect fill="#F1F1F1" height="40.5938" style="stroke:#181818;stroke-width:0.5;" width="71" x="390" y="137.5"/><text fill="#000000" font-family="sans-serif" font-size="14" lengthAdjust="spacing" textLength="57" x="397" y="152.4951">Storage</text><line style="stroke:#181818;stroke-width:1.0;" x1="390" x2="461" y1="157.7969" y2="157.7969"/><text fill="#000000" font-family="sans-serif" font-size="14" lengthAdjust="spacing" textLength="26" x="412.5" y="172.792">key</text></g><g id="elem_docIndex"><rect fill="#F1F1F1" height="101.4844" style="stroke:#181818;stroke-width:0.5;" width="98" x="121.5" y="107"/><text fill="#000000" font-family="sans-serif" font-size="14" lengthAdjust="spacing" textLength="65" x="138" y="121.9951">docIndex</text><line style="stroke:#181818;stroke-width:1.0;" x1="121.5" x2="219.5" y1="127.2969" y2="127.2969"/><text fill="#000000" font-family="sans-serif" font-size="14" lengthAdjust="spacing" textLength="49" x="146" y="142.292">"hello"</text><line style="stroke:#181818;stroke-width:1.0;" x1="121.5" x2="219.5" y1="147.5938" y2="147.5938"/><text fill="#000000" font-family="sans-serif" font-size="14" lengthAdjust="spacing" textLength="53" x="144" y="162.5889">"world"</text><line style="stroke:#181818;stroke-width:1.0;" x1="121.5" x2="219.5" y1="167.8906" y2="167.8906"/><text fill="#000000" font-family="sans-serif" font-size="14" lengthAdjust="spacing" textLength="27" x="157" y="182.8857">"hi"</text><line style="stroke:#181818;stroke-width:1.0;" x1="121.5" x2="219.5" y1="188.1875" y2="188.1875"/><text fill="#000000" font-family="sans-serif" font-size="14" lengthAdjust="spacing" textLength="81" x="130" y="203.1826">"everyone"</text></g><g id="elem_DeleteQueue"><rect fill="#F1F1F1" height="36.2969" style="stroke:#181818;stroke-width:0.5;" width="108" x="7.5" y="7"/><text fill="#000000" font-family="sans-serif" font-size="14" lengthAdjust="spacing" textLength="94" x="14.5" y="21.9951">DeleteQueue</text><line style="stroke:#181818;stroke-width:0.5;" x1="8.5" x2="114.5" y1="27.2969" y2="27.2969"/></g><g id="elem_GC"><rect fill="#F1F1F1" height="36.2969" style="stroke:#181818;stroke-width:0.5;" width="35" x="152" y="7"/><text fill="#000000" font-family="sans-serif" font-size="14" lengthAdjust="spacing" textLength="21" x="159" y="21.9951">GC</text><line style="stroke:#181818;stroke-width:0.5;" x1="153" x2="186" y1="27.2969" y2="27.2969"/></g><!--link Document to Hash--><g id="link_Document_Hash"><path codeLine="19" d="M115.5,326.5 C128.995,326.5 143.279,325.9229 157.192,325.0459 " fill="none" id="Document-to-Hash" style="stroke:#181818;stroke-width:1.0;"/></g><!--link DocumentV2 to HashV2--><g id="link_DocumentV2_HashV2"><path codeLine="27" d="M483.5,326.5 C497.09,326.5 511.462,325.9415 525.486,325.0885 " fill="none" id="DocumentV2-to-HashV2" style="stroke:#181818;stroke-width:1.0;"/></g><!--link Storage to DocumentV2--><g id="link_Storage_DocumentV2"><path d="M426.5,178.5 C426.5,208.491 426.5,242.175 426.5,268.6381 " fill="none" id="Storage-to-DocumentV2" style="stroke:#181818;stroke-width:1.0;"/><polygon fill="#181818" points="426.5,273.8312,430.5,264.8312,426.5,268.8312,422.5,264.8312,426.5,273.8312" style="stroke:#181818;stroke-width:1.0;"/></g><!--link docIndex to Document--><g id="link_docIndex_Document"><path d="M120.5,137.5 C106.639,137.5 84.7252,216.009 71.5683,268.7471 " fill="none" id="docIndex-to-Document" style="stroke:#181818;stroke-width:1.0;"/><polygon fill="#181818" points="70.3229,273.7669,76.3724,265.9949,71.5269,268.914,68.6077,264.0685,70.3229,273.7669" style="stroke:#181818;stroke-width:1.0;"/></g><!--link docIndex to Document--><g id="link_docIndex_Document"><path d="M120.5,157.5 C108.468,157.5 87.2232,222.362 73.5105,268.9693 " fill="none" id="docIndex-to-Document-1" style="stroke:#181818;stroke-width:1.0;"/><polygon fill="#181818" points="72.0423,273.9874,78.4088,266.4729,73.4464,269.1886,70.7307,264.2263,72.0423,273.9874" style="stroke:#181818;stroke-width:1.0;"/></g><!--link docIndex to DocumentV2--><g id="link_docIndex_DocumentV2"><path d="M220.5,177.5 C288.266,177.5 350.586,229.683 388.532,269.8714 " fill="none" id="docIndex-to-DocumentV2" style="stroke:#181818;stroke-width:1.0;"/><polygon fill="#181818" points="392.128,273.721,388.9084,264.4133,388.7152,270.0668,383.0617,269.8737,392.128,273.721" style="stroke:#181818;stroke-width:1.0;"/></g><!--link docIndex to DocumentV2--><g id="link_docIndex_DocumentV2"><path d="M220.5,198.5 C281.216,198.5 340.408,237.405 379.644,270.3458 " fill="none" id="docIndex-to-DocumentV2-1" style="stroke:#181818;stroke-width:1.0;"/><polygon fill="#181818" points="383.853,273.9207,379.5835,265.0454,380.0423,270.6836,374.4041,271.1424,383.853,273.9207" style="stroke:#181818;stroke-width:1.0;"/></g><!--link DeleteQueue to Document--><g id="link_DeleteQueue_Document"><path codeLine="41" d="M61.4404,43.243 C61.2894,86.96 60.8875,203.306 60.661,268.8796 " fill="none" id="DeleteQueue-to-Document" style="stroke:#181818;stroke-width:1.0;"/><polygon fill="#181818" points="60.6437,273.899,64.675,264.913,60.6611,268.899,56.6751,264.8851,60.6437,273.899" style="stroke:#181818;stroke-width:1.0;"/></g><!--reverse link DeleteQueue to GC--><g id="link_DeleteQueue_GC"><path codeLine="44" d="M120.984,25 C131.296,25 141.608,25 151.92,25 " fill="none" id="DeleteQueue-backto-GC" style="stroke:#181818;stroke-width:1.0;"/><polygon fill="#181818" points="115.922,25,124.922,29,120.922,25,124.922,21,115.922,25" style="stroke:#181818;stroke-width:1.0;"/></g><!--link GC to docIndex--><g id="link_GC_docIndex"><path codeLine="46" d="M169.631,43.061 C169.738,57.073 169.897,77.784 170.049,97.688 " fill="none" id="GC-to-docIndex" style="stroke:#181818;stroke-width:1.0;"/><polygon fill="#181818" points="170.088,102.726,174.0184,93.6954,170.0494,97.7261,166.0187,93.7571,170.088,102.726" style="stroke:#181818;stroke-width:1.0;"/></g><!--SRC=[bL7BQiCm4BphAnOT0owDSZCq5598UWm5trLh_KXbgyXoan3wxvKsaMDJzr2Tf9tPcTrH8pzX9xiABWpyUIvgr6e9JslOeTO6ZiPgDO94WCJ3uwYq2YKdooNxPgpnUZm8Sf0TAMTYHhi6_49xDYt-Gzky7p1ty6Boli7MtMG_y9n2vspTblIkl2TT56fqg59mjiVG7nlJD70WMTDyWouVX3D1qyVti86t-iEYaBgRU6HYwfA9QpPlpbXPubqG5ecdtDjYYChahwt2qut9g_0TVCg-8lH5iqXLyr_o1CJm-PnxZ9bss_VemnlT8PduHFPsmxORI3GMBi2ZNghxMbpe1m00]--></g></svg>