<?xml version="1.0" encoding="us-ascii" standalone="no"?><svg xmlns="http://www.w3.org/2000/svg" xmlns:xlink="http://www.w3.org/1999/xlink" contentStyleType="text/css" height="425px" preserveAspectRatio="none" style="width:309px;height:425px;background:#FFFFFF;" version="1.1" viewBox="0 0 309 425" width="309px" zoomAndPan="magnify"><defs/><g><!--class FTSIndex--><g id="elem_FTSIndex"><rect codeLine="1" fill="#F1F1F1" height="80.5938" id="FTSIndex" rx="2.5" ry="2.5" style="stroke:#181818;stroke-width:0.5;" width="295" x="7" y="7"/><ellipse cx="117.75" cy="23" fill="#ADD1B2" rx="11" ry="11" style="stroke:#181818;stroke-width:1.0;"/><path d="M120.0938,18.6719 C119.1563,18.2344 118.5625,18.0938 117.6875,18.0938 C115.0625,18.0938 113.0625,20.1719 113.0625,22.8906 L113.0625,24.0156 C113.0625,26.5938 115.1719,28.4844 118.0625,28.4844 C119.2813,28.4844 120.4375,28.1875 121.1875,27.6406 C121.7656,27.2344 122.0938,26.7813 122.0938,26.3906 C122.0938,25.9375 121.7031,25.5469 121.2344,25.5469 C121.0156,25.5469 120.8125,25.625 120.625,25.8125 C120.1719,26.2969 120.1719,26.2969 119.9844,26.3906 C119.5625,26.6563 118.875,26.7813 118.1094,26.7813 C116.0625,26.7813 114.7656,25.6875 114.7656,23.9844 L114.7656,22.8906 C114.7656,21.1094 116.0156,19.7969 117.75,19.7969 C118.3281,19.7969 118.9375,19.9531 119.4063,20.2031 C119.8906,20.4844 120.0625,20.7031 120.1563,21.1094 C120.2188,21.5156 120.25,21.6406 120.3906,21.7656 C120.5313,21.9063 120.7656,22.0156 120.9844,22.0156 C121.25,22.0156 121.5156,21.875 121.6875,21.6563 C121.7969,21.5 121.8281,21.3125 121.8281,20.8906 L121.8281,19.4688 C121.8281,19.0313 121.8125,18.9063 121.7188,18.75 C121.5625,18.4844 121.2813,18.3438 120.9844,18.3438 C120.6875,18.3438 120.4844,18.4375 120.2656,18.75 L120.0938,18.6719 Z " fill="#000000"/><text fill="#000000" font-family="sans-serif" font-size="14" lengthAdjust="spacing" textLength="65" x="138.25" y="27.8467">FTSIndex</text><line style="stroke:#181818;stroke-width:0.5;" x1="8" x2="301" y1="39" y2="39"/><text fill="#000000" font-family="sans-serif" font-size="14" lengthAdjust="spacing" textLength="102" x="13" y="55.9951">Fields: string[]</text><text fill="#000000" font-family="sans-serif" font-size="14" lengthAdjust="spacing" textLength="283" x="13" y="72.292">trie: Trie&lt;string, DocTermOccurrence&gt;</text><line style="stroke:#181818;stroke-width:0.5;" x1="8" x2="301" y1="79.5938" y2="79.5938"/></g><!--class DocTermOccurrence--><g id="elem_DocTermOccurrence"><rect codeLine="8" fill="#F1F1F1" height="96.8906" id="DocTermOccurrence" rx="2.5" ry="2.5" style="stroke:#181818;stroke-width:0.5;" width="274" x="17.5" y="148"/><ellipse cx="76.25" cy="164" fill="#ADD1B2" rx="11" ry="11" style="stroke:#181818;stroke-width:1.0;"/><path d="M78.5938,159.6719 C77.6563,159.2344 77.0625,159.0938 76.1875,159.0938 C73.5625,159.0938 71.5625,161.1719 71.5625,163.8906 L71.5625,165.0156 C71.5625,167.5938 73.6719,169.4844 76.5625,169.4844 C77.7813,169.4844 78.9375,169.1875 79.6875,168.6406 C80.2656,168.2344 80.5938,167.7813 80.5938,167.3906 C80.5938,166.9375 80.2031,166.5469 79.7344,166.5469 C79.5156,166.5469 79.3125,166.625 79.125,166.8125 C78.6719,167.2969 78.6719,167.2969 78.4844,167.3906 C78.0625,167.6563 77.375,167.7813 76.6094,167.7813 C74.5625,167.7813 73.2656,166.6875 73.2656,164.9844 L73.2656,163.8906 C73.2656,162.1094 74.5156,160.7969 76.25,160.7969 C76.8281,160.7969 77.4375,160.9531 77.9063,161.2031 C78.3906,161.4844 78.5625,161.7031 78.6563,162.1094 C78.7188,162.5156 78.75,162.6406 78.8906,162.7656 C79.0313,162.9063 79.2656,163.0156 79.4844,163.0156 C79.75,163.0156 80.0156,162.875 80.1875,162.6563 C80.2969,162.5 80.3281,162.3125 80.3281,161.8906 L80.3281,160.4688 C80.3281,160.0313 80.3125,159.9063 80.2188,159.75 C80.0625,159.4844 79.7813,159.3438 79.4844,159.3438 C79.1875,159.3438 78.9844,159.4375 78.7656,159.75 L78.5938,159.6719 Z " fill="#000000"/><text fill="#000000" font-family="sans-serif" font-size="14" lengthAdjust="spacing" textLength="148" x="96.75" y="168.8467">DocTermOccurrence</text><line style="stroke:#181818;stroke-width:0.5;" x1="18.5" x2="290.5" y1="180" y2="180"/><text fill="#000000" font-family="sans-serif" font-size="14" lengthAdjust="spacing" textLength="119" x="23.5" y="196.9951">Doc: *Document</text><text fill="#000000" font-family="sans-serif" font-size="14" lengthAdjust="spacing" textLength="96" x="23.5" y="213.292">Fields: BitSet</text><text fill="#000000" font-family="sans-serif" font-size="14" lengthAdjust="spacing" textLength="262" x="23.5" y="229.5889">Occurrences: FieldTermOccurrence[]</text><line style="stroke:#181818;stroke-width:0.5;" x1="18.5" x2="290.5" y1="236.8906" y2="236.8906"/></g><!--class FieldTermOccurrence--><g id="elem_FieldTermOccurrence"><rect codeLine="16" fill="#F1F1F1" height="113.1875" id="FieldTermOccurrence" rx="2.5" ry="2.5" style="stroke:#181818;stroke-width:0.5;" width="186" x="61.5" y="305"/><ellipse cx="76.5" cy="321" fill="#ADD1B2" rx="11" ry="11" style="stroke:#181818;stroke-width:1.0;"/><path d="M78.8438,316.6719 C77.9063,316.2344 77.3125,316.0938 76.4375,316.0938 C73.8125,316.0938 71.8125,318.1719 71.8125,320.8906 L71.8125,322.0156 C71.8125,324.5938 73.9219,326.4844 76.8125,326.4844 C78.0313,326.4844 79.1875,326.1875 79.9375,325.6406 C80.5156,325.2344 80.8438,324.7813 80.8438,324.3906 C80.8438,323.9375 80.4531,323.5469 79.9844,323.5469 C79.7656,323.5469 79.5625,323.625 79.375,323.8125 C78.9219,324.2969 78.9219,324.2969 78.7344,324.3906 C78.3125,324.6563 77.625,324.7813 76.8594,324.7813 C74.8125,324.7813 73.5156,323.6875 73.5156,321.9844 L73.5156,320.8906 C73.5156,319.1094 74.7656,317.7969 76.5,317.7969 C77.0781,317.7969 77.6875,317.9531 78.1563,318.2031 C78.6406,318.4844 78.8125,318.7031 78.9063,319.1094 C78.9688,319.5156 79,319.6406 79.1406,319.7656 C79.2813,319.9063 79.5156,320.0156 79.7344,320.0156 C80,320.0156 80.2656,319.875 80.4375,319.6563 C80.5469,319.5 80.5781,319.3125 80.5781,318.8906 L80.5781,317.4688 C80.5781,317.0313 80.5625,316.9063 80.4688,316.75 C80.3125,316.4844 80.0313,316.3438 79.7344,316.3438 C79.4375,316.3438 79.2344,316.4375 79.0156,316.75 L78.8438,316.6719 Z " fill="#000000"/><text fill="#000000" font-family="sans-serif" font-size="14" lengthAdjust="spacing" textLength="154" x="90.5" y="325.8467">FieldTermOccurrence</text><line style="stroke:#181818;stroke-width:0.5;" x1="62.5" x2="246.5" y1="337" y2="337"/><text fill="#000000" font-family="sans-serif" font-size="14" lengthAdjust="spacing" textLength="84" x="67.5" y="353.9951">FieldIdx: int</text><text fill="#000000" font-family="sans-serif" font-size="14" lengthAdjust="spacing" textLength="79" x="67.5" y="370.292">Offset : int</text><text fill="#000000" font-family="sans-serif" font-size="14" lengthAdjust="spacing" textLength="55" x="67.5" y="386.5889">Len: int</text><text fill="#000000" font-family="sans-serif" font-size="14" lengthAdjust="spacing" textLength="54" x="67.5" y="402.8857">Pos: int</text><line style="stroke:#181818;stroke-width:0.5;" x1="62.5" x2="246.5" y1="410.1875" y2="410.1875"/></g><!--reverse link FTSIndex to DocTermOccurrence--><g id="link_FTSIndex_DocTermOccurrence"><path codeLine="6" d="M154.5,101.704 C154.5,116.788 154.5,133.109 154.5,147.843 " fill="none" id="FTSIndex-backto-DocTermOccurrence" style="stroke:#181818;stroke-width:1.0;"/><polygon fill="none" points="154.5,88.28,150.5,94.28,154.5,100.28,158.5,94.28,154.5,88.28" style="stroke:#181818;stroke-width:1.0;"/></g><!--reverse link DocTermOccurrence to FieldTermOccurrence--><g id="link_DocTermOccurrence_FieldTermOccurrence"><path codeLine="14" d="M154.5,258.182 C154.5,273.459 154.5,289.783 154.5,304.803 " fill="none" id="DocTermOccurrence-backto-FieldTermOccurrence" style="stroke:#181818;stroke-width:1.0;"/><polygon fill="none" points="154.5,245.085,150.5,251.085,154.5,257.085,158.5,251.085,154.5,245.085" style="stroke:#181818;stroke-width:1.0;"/></g><!--SRC=[RP312i8m38RFzYbo5lS2HJo830R2XFKc7gJDfB2rq7OmaBsxMQjEwIxXxv_qpqTaT_SUIj5KHk48JmPGQkoKv-23q-PnlP552Za8gllaxk1afK3Nrr8Epg6HU60JOzyWMnJv26CohiiQSI-v7BPKXnvD-04vwj3WR2mVo8tT_nXY9OOyVOPP6V_WhBIMGrHgvA0ZJzss7WEav-QCvgqkrYSrlG00]--></g></svg>