<?xml version="1.0" encoding="us-ascii" standalone="no"?><svg xmlns="http://www.w3.org/2000/svg" xmlns:xlink="http://www.w3.org/1999/xlink" contentStyleType="text/css" height="521px" preserveAspectRatio="none" style="width:1087px;height:521px;background:#FFFFFF;" version="1.1" viewBox="0 0 1087 521" width="1087px" zoomAndPan="magnify"><defs/><g><g id="elem_document"><rect fill="#F1F1F1" height="60.8906" style="stroke:#181818;stroke-width:0.5;" width="351" x="223.459" y="454"/><text fill="#000000" font-family="sans-serif" font-size="14" lengthAdjust="spacing" textLength="73" x="362.459" y="468.9951">document</text><line style="stroke:#181818;stroke-width:1.0;" x1="223.459" x2="574.459" y1="474.2969" y2="474.2969"/><text fill="#000000" font-family="sans-serif" font-size="14" lengthAdjust="spacing" textLength="31" x="253.959" y="489.292">title</text><text fill="#000000" font-family="sans-serif" font-size="14" lengthAdjust="spacing" textLength="87" x="320.459" y="489.292">Hello World!</text><line style="stroke:#181818;stroke-width:1.0;" x1="315.459" x2="315.459" y1="474.2969" y2="494.5938"/><line style="stroke:#181818;stroke-width:1.0;" x1="223.459" x2="574.459" y1="494.5938" y2="494.5938"/><text fill="#000000" font-family="sans-serif" font-size="14" lengthAdjust="spacing" textLength="82" x="228.459" y="509.5889">description</text><text fill="#000000" font-family="sans-serif" font-size="14" lengthAdjust="spacing" textLength="249" x="320.459" y="509.5889">Hello, such beautiful place as Earth</text><line style="stroke:#181818;stroke-width:1.0;" x1="315.459" x2="315.459" y1="494.5938" y2="514.8906"/></g><g id="elem_helloOcc"><rect fill="#F1F1F1" height="77.1875" style="stroke:#181818;stroke-width:0.5;" width="207" x="257.459" y="156"/><text fill="#000000" font-family="sans-serif" font-size="14" lengthAdjust="spacing" textLength="193" x="264.459" y="170.9951">DocTermOccurrence: Hello</text><line style="stroke:#181818;stroke-width:0.5;" x1="258.459" x2="463.459" y1="176.2969" y2="176.2969"/><text fill="#000000" font-family="sans-serif" font-size="14" lengthAdjust="spacing" textLength="28" x="263.459" y="193.292">Doc</text><text fill="#000000" font-family="sans-serif" font-size="14" lengthAdjust="spacing" textLength="181" x="263.459" y="209.5889">Fields: [title, description]</text><text fill="#000000" font-family="sans-serif" font-size="14" lengthAdjust="spacing" textLength="89" x="263.459" y="225.8857">Occurrences</text></g><g id="elem_helloTitleOcc"><rect fill="#F1F1F1" height="93.4844" style="stroke:#181818;stroke-width:0.5;" width="265" x="95.4591" y="297"/><text fill="#000000" font-family="sans-serif" font-size="14" lengthAdjust="spacing" textLength="251" x="102.4591" y="311.9951">FieldTermOccurrence: Hello in title</text><line style="stroke:#181818;stroke-width:0.5;" x1="96.4591" x2="359.4591" y1="317.2969" y2="317.2969"/><text fill="#000000" font-family="sans-serif" font-size="14" lengthAdjust="spacing" textLength="71" x="101.4591" y="334.292">fieldIdx: 0</text><text fill="#000000" font-family="sans-serif" font-size="14" lengthAdjust="spacing" textLength="64" x="101.4591" y="350.5889">Offset: 0</text><text fill="#000000" font-family="sans-serif" font-size="14" lengthAdjust="spacing" textLength="44" x="101.4591" y="366.8857">Len: 5</text><text fill="#000000" font-family="sans-serif" font-size="14" lengthAdjust="spacing" textLength="43" x="101.4591" y="383.1826">Pos: 0</text></g><g id="elem_helloDescriptionOcc"><rect fill="#F1F1F1" height="93.4844" style="stroke:#181818;stroke-width:0.5;" width="308" x="395.959" y="297"/><text fill="#000000" font-family="sans-serif" font-size="14" lengthAdjust="spacing" textLength="294" x="402.959" y="311.9951">FieldTermOcurrence: Hello in description</text><line style="stroke:#181818;stroke-width:0.5;" x1="396.959" x2="702.959" y1="317.2969" y2="317.2969"/><text fill="#000000" font-family="sans-serif" font-size="14" lengthAdjust="spacing" textLength="71" x="401.959" y="334.292">fieldIdx: 1</text><text fill="#000000" font-family="sans-serif" font-size="14" lengthAdjust="spacing" textLength="64" x="401.959" y="350.5889">Offset: 0</text><text fill="#000000" font-family="sans-serif" font-size="14" lengthAdjust="spacing" textLength="44" x="401.959" y="366.8857">Len: 5</text><text fill="#000000" font-family="sans-serif" font-size="14" lengthAdjust="spacing" textLength="43" x="401.959" y="383.1826">Pos: 0</text></g><g id="elem_worldOcc"><rect fill="#F1F1F1" height="60.8906" style="stroke:#181818;stroke-width:0.5;" width="213" x="650.459" y="164.5"/><text fill="#000000" font-family="sans-serif" font-size="14" lengthAdjust="spacing" textLength="199" x="657.459" y="179.4951">DocTermOccurrence: World</text><line style="stroke:#181818;stroke-width:0.5;" x1="651.459" x2="862.459" y1="184.7969" y2="184.7969"/><text fill="#000000" font-family="sans-serif" font-size="14" lengthAdjust="spacing" textLength="91" x="656.459" y="201.792">Fields: [title]</text><text fill="#000000" font-family="sans-serif" font-size="14" lengthAdjust="spacing" textLength="89" x="656.459" y="218.0889">Occurrences</text></g><g id="elem_worldTitleOcc"><rect fill="#F1F1F1" height="93.4844" style="stroke:#181818;stroke-width:0.5;" width="271" x="810.459" y="297"/><text fill="#000000" font-family="sans-serif" font-size="14" lengthAdjust="spacing" textLength="257" x="817.459" y="311.9951">FieldTermOccurrence: World in title</text><line style="stroke:#181818;stroke-width:0.5;" x1="811.459" x2="1080.459" y1="317.2969" y2="317.2969"/><text fill="#000000" font-family="sans-serif" font-size="14" lengthAdjust="spacing" textLength="71" x="816.459" y="334.292">fieldIdx: 0</text><text fill="#000000" font-family="sans-serif" font-size="14" lengthAdjust="spacing" textLength="64" x="816.459" y="350.5889">Offset: 0</text><text fill="#000000" font-family="sans-serif" font-size="14" lengthAdjust="spacing" textLength="44" x="816.459" y="366.8857">Len: 5</text><text fill="#000000" font-family="sans-serif" font-size="14" lengthAdjust="spacing" textLength="43" x="816.459" y="383.1826">Pos: 0</text></g><g id="elem_trie"><rect fill="#F1F1F1" height="81.1875" style="stroke:#181818;stroke-width:0.5;" width="63" x="526.459" y="7"/><text fill="#000000" font-family="sans-serif" font-size="14" lengthAdjust="spacing" textLength="26" x="544.959" y="21.9951">trie</text><line style="stroke:#181818;stroke-width:1.0;" x1="526.459" x2="589.459" y1="27.2969" y2="27.2969"/><text fill="#000000" font-family="sans-serif" font-size="14" lengthAdjust="spacing" textLength="35" x="540.459" y="42.292">hello</text><line style="stroke:#181818;stroke-width:1.0;" x1="526.459" x2="589.459" y1="47.5938" y2="47.5938"/><text fill="#000000" font-family="sans-serif" font-size="14" lengthAdjust="spacing" textLength="39" x="538.459" y="62.5889">world</text><line style="stroke:#181818;stroke-width:1.0;" x1="526.459" x2="589.459" y1="67.8906" y2="67.8906"/><text fill="#000000" font-family="sans-serif" font-size="14" lengthAdjust="spacing" textLength="15" x="543.459" y="82.8857">...</text><text fill="#000000" font-family="sans-serif" font-size="14" lengthAdjust="spacing" textLength="4" x="580.459" y="82.8857">&#160;</text><line style="stroke:#181818;stroke-width:1.0;" x1="575.459" x2="575.459" y1="67.8906" y2="88.1875"/></g><!--link helloOcc to helloTitleOcc--><g id="link_helloOcc_helloTitleOcc"><path codeLine="26" d="M256.959,220.5 C226.065,220.5 220.51,257.988 221.696,291.403 " fill="none" id="helloOcc-to-helloTitleOcc" style="stroke:#181818;stroke-width:1.0;"/><polygon fill="#181818" points="221.941,296.725,225.5201,287.5495,221.7096,291.7304,217.5287,287.9198,221.941,296.725" style="stroke:#181818;stroke-width:1.0;"/></g><!--link helloOcc to helloDescriptionOcc--><g id="link_helloOcc_helloDescriptionOcc"><path codeLine="27" d="M465.959,220.5 C502.602,220.5 524.478,258.297 536.673,291.815 " fill="none" id="helloOcc-to-helloDescriptionOcc" style="stroke:#181818;stroke-width:1.0;"/><polygon fill="#181818" points="538.402,296.725,539.184,286.9072,536.7405,292.0091,531.6386,289.5656,538.402,296.725" style="stroke:#181818;stroke-width:1.0;"/></g><!--link helloOcc to document--><g id="link_helloOcc_document"><path codeLine="28" d="M256.959,188.5 C137.1706,188.5 6,294.234 77.9591,390 C95.9267,413.912 151.4879,433.648 211.447,448.6931 " fill="none" id="helloOcc-to-document" style="stroke:#181818;stroke-width:1.0;stroke-dasharray:7.0,7.0;"/><polygon fill="#181818" points="216.514,449.9508,208.7424,443.9008,211.6612,448.7465,206.8155,451.6653,216.514,449.9508" style="stroke:#181818;stroke-width:1.0;"/></g><!--link worldOcc to worldTitleOcc--><g id="link_worldOcc_worldTitleOcc"><path codeLine="42" d="M864.959,212.5 C904.024,212.5 924.928,255.309 935.649,291.795 " fill="none" id="worldOcc-to-worldTitleOcc" style="stroke:#181818;stroke-width:1.0;"/><polygon fill="#181818" points="937.033,296.667,938.4219,286.9166,935.6669,291.8572,930.7263,289.1023,937.033,296.667" style="stroke:#181818;stroke-width:1.0;"/></g><!--link worldOcc to document--><g id="link_worldOcc_document"><path codeLine="43" d="M760.773,228.574 C763.763,271.33 762.074,345.556 721.959,390 C701.048,413.168 641.223,433.2108 578.652,448.6962 " fill="none" id="worldOcc-to-document" style="stroke:#181818;stroke-width:1.0;stroke-dasharray:7.0,7.0;"/><polygon fill="#181818" points="573.757,449.8971,583.4509,451.6373,578.613,448.7057,581.5446,443.8678,573.757,449.8971" style="stroke:#181818;stroke-width:1.0;"/></g><!--link trie to helloOcc--><g id="link_trie_helloOcc"><path d="M525.959,37.5 C461.418,37.5 411.944,101.303 384.663,147.302 " fill="none" id="trie-to-helloOcc" style="stroke:#181818;stroke-width:1.0;"/><polygon fill="#181818" points="382.092,151.695,390.0887,145.9458,384.6164,147.3791,383.1832,141.9068,382.092,151.695" style="stroke:#181818;stroke-width:1.0;"/></g><!--link trie to worldOcc--><g id="link_trie_worldOcc"><path d="M590.959,57.5 C653.327,57.5 705.11,115.653 733.483,155.906 " fill="none" id="trie-to-worldOcc" style="stroke:#181818;stroke-width:1.0;"/><polygon fill="#181818" points="736.491,160.231,734.6357,150.5585,733.636,156.1263,728.0682,155.1265,736.491,160.231" style="stroke:#181818;stroke-width:1.0;"/></g><!--SRC=[dLDDIyGm4BttLpptABj53ru2zhIAWg271G_YePjEQIHjIfAY8FlVJLBQfhIuw2LCvkEzcJT9dRSe5EzgQYo-4y0AAmct6Hv8IeLNfMLnuVm56Qv5QuLgnkWMfkCLZfHtLfITH2jpJiWDxd9jg-IK9EhuGTnYirVyGBf-vhpJcXfEh8VO-EpAMouK6d2PxhmN90l3y1RwsSRqxouyuPYO9LIjya0q_MWJuS5V1zRILpuMNmnN7hui3TdUVgA6uSOPByfupphTaYtgUEBSJyuby_Lvva4fnY85iDjbyv7EvStRYBAT-4ZJD1lVnAyR38yZ3FVfhM6Y-Ux-kgu0EbzNGF__keRcbcBCWAEy5Hbgzr6i5XJeWs2u7FNqrUZHUky0vRmEnt-OvFG3]--></g></svg>