<?xml version="1.0" encoding="us-ascii" standalone="no"?><svg xmlns="http://www.w3.org/2000/svg" xmlns:xlink="http://www.w3.org/1999/xlink" contentStyleType="text/css" height="746px" preserveAspectRatio="none" style="width:1013px;height:746px;background:#FFFFFF;" version="1.1" viewBox="0 0 1013 746" width="1013px" zoomAndPan="magnify"><defs/><g><!--cluster Proxy node--><g id="cluster_Proxy node"><polygon fill="none" points="470.5,16,480.5,6,635.5,6,635.5,98,625.5,108,470.5,108,470.5,16" style="stroke:#181818;stroke-width:1.0;"/><line style="stroke:#181818;stroke-width:1.0;" x1="625.5" x2="635.5" y1="16" y2="6"/><line style="stroke:#181818;stroke-width:1.0;" x1="470.5" x2="625.5" y1="16" y2="16"/><line style="stroke:#181818;stroke-width:1.0;" x1="625.5" x2="625.5" y1="16" y2="108"/><text fill="#000000" font-family="sans-serif" font-size="14" font-weight="bold" lengthAdjust="spacing" textLength="89" x="504.5" y="31.9951">Proxy node</text></g><!--cluster Master--><g id="cluster_Master"><polygon fill="none" points="289.5,167,299.5,157,574.5,157,574.5,341,564.5,351,289.5,351,289.5,167" style="stroke:#181818;stroke-width:1.0;"/><line style="stroke:#181818;stroke-width:1.0;" x1="564.5" x2="574.5" y1="167" y2="157"/><line style="stroke:#181818;stroke-width:1.0;" x1="289.5" x2="564.5" y1="167" y2="167"/><line style="stroke:#181818;stroke-width:1.0;" x1="564.5" x2="564.5" y1="167" y2="351"/><text fill="#000000" font-family="sans-serif" font-size="14" font-weight="bold" lengthAdjust="spacing" textLength="57" x="399.5" y="182.9951">Master</text></g><!--cluster mredis--><g id="cluster_mredis"><rect fill="none" height="106" rx="2.5" ry="2.5" style="stroke:#181818;stroke-width:1.0;" width="221" x="321.5" y="213"/><rect fill="none" height="10" style="stroke:#181818;stroke-width:1.0;" width="15" x="522.5" y="218"/><rect fill="none" height="2" style="stroke:#181818;stroke-width:1.0;" width="4" x="520.5" y="220"/><rect fill="none" height="2" style="stroke:#181818;stroke-width:1.0;" width="4" x="520.5" y="224"/><text fill="#000000" font-family="sans-serif" font-size="14" font-weight="bold" lengthAdjust="spacing" textLength="44" x="410" y="238.9951">Redis</text></g><!--cluster r1--><g id="cluster_r1"><polygon fill="none" points="590.5,410,600.5,400,875.5,400,875.5,584,865.5,594,590.5,594,590.5,410" style="stroke:#181818;stroke-width:1.0;"/><line style="stroke:#181818;stroke-width:1.0;" x1="865.5" x2="875.5" y1="410" y2="400"/><line style="stroke:#181818;stroke-width:1.0;" x1="590.5" x2="865.5" y1="410" y2="410"/><line style="stroke:#181818;stroke-width:1.0;" x1="865.5" x2="865.5" y1="410" y2="594"/><text fill="#000000" font-family="sans-serif" font-size="14" font-weight="bold" lengthAdjust="spacing" textLength="59" x="699.5" y="425.9951">Replica</text></g><!--cluster r1redis--><g id="cluster_r1redis"><rect fill="none" height="106" rx="2.5" ry="2.5" style="stroke:#181818;stroke-width:1.0;" width="221" x="622.5" y="456"/><rect fill="none" height="10" style="stroke:#181818;stroke-width:1.0;" width="15" x="823.5" y="461"/><rect fill="none" height="2" style="stroke:#181818;stroke-width:1.0;" width="4" x="821.5" y="463"/><rect fill="none" height="2" style="stroke:#181818;stroke-width:1.0;" width="4" x="821.5" y="467"/><text fill="#000000" font-family="sans-serif" font-size="14" font-weight="bold" lengthAdjust="spacing" textLength="44" x="711" y="481.9951">Redis</text></g><!--cluster r2--><g id="cluster_r2"><polygon fill="none" points="281.5,410,291.5,400,566.5,400,566.5,584,556.5,594,281.5,594,281.5,410" style="stroke:#181818;stroke-width:1.0;"/><line style="stroke:#181818;stroke-width:1.0;" x1="556.5" x2="566.5" y1="410" y2="400"/><line style="stroke:#181818;stroke-width:1.0;" x1="281.5" x2="556.5" y1="410" y2="410"/><line style="stroke:#181818;stroke-width:1.0;" x1="556.5" x2="556.5" y1="410" y2="594"/><text fill="#000000" font-family="sans-serif" font-size="14" font-weight="bold" lengthAdjust="spacing" textLength="59" x="390.5" y="425.9951">Replica</text></g><!--cluster r2redis--><g id="cluster_r2redis"><rect fill="none" height="106" rx="2.5" ry="2.5" style="stroke:#181818;stroke-width:1.0;" width="221" x="313.5" y="456"/><rect fill="none" height="10" style="stroke:#181818;stroke-width:1.0;" width="15" x="514.5" y="461"/><rect fill="none" height="2" style="stroke:#181818;stroke-width:1.0;" width="4" x="512.5" y="463"/><rect fill="none" height="2" style="stroke:#181818;stroke-width:1.0;" width="4" x="512.5" y="467"/><text fill="#000000" font-family="sans-serif" font-size="14" font-weight="bold" lengthAdjust="spacing" textLength="44" x="402" y="481.9951">Redis</text></g><!--cluster FTSReplica1--><g id="cluster_FTSReplica1"><polygon fill="none" points="142.5,637,152.5,627,317.5,627,317.5,719,307.5,729,142.5,729,142.5,637" style="stroke:#181818;stroke-width:1.0;"/><line style="stroke:#181818;stroke-width:1.0;" x1="307.5" x2="317.5" y1="637" y2="627"/><line style="stroke:#181818;stroke-width:1.0;" x1="142.5" x2="307.5" y1="637" y2="637"/><line style="stroke:#181818;stroke-width:1.0;" x1="307.5" x2="307.5" y1="637" y2="729"/><text fill="#000000" font-family="sans-serif" font-size="14" font-weight="bold" lengthAdjust="spacing" textLength="99" x="176.5" y="652.9951">FTSReplica1</text></g><!--cluster FTSReplica2--><g id="cluster_FTSReplica2"><polygon fill="none" points="821.5,637,831.5,627,996.5,627,996.5,719,986.5,729,821.5,729,821.5,637" style="stroke:#181818;stroke-width:1.0;"/><line style="stroke:#181818;stroke-width:1.0;" x1="986.5" x2="996.5" y1="637" y2="627"/><line style="stroke:#181818;stroke-width:1.0;" x1="821.5" x2="986.5" y1="637" y2="637"/><line style="stroke:#181818;stroke-width:1.0;" x1="986.5" x2="986.5" y1="637" y2="729"/><text fill="#000000" font-family="sans-serif" font-size="14" font-weight="bold" lengthAdjust="spacing" textLength="99" x="855.5" y="652.9951">FTSReplica2</text></g><!--entity p--><g id="elem_p"><rect fill="#F1F1F1" height="46.2969" rx="2.5" ry="2.5" style="stroke:#181818;stroke-width:0.5;" width="80" x="512.5" y="46"/><rect fill="#F1F1F1" height="10" style="stroke:#181818;stroke-width:0.5;" width="15" x="572.5" y="51"/><rect fill="#F1F1F1" height="2" style="stroke:#181818;stroke-width:0.5;" width="4" x="570.5" y="53"/><rect fill="#F1F1F1" height="2" style="stroke:#181818;stroke-width:0.5;" width="4" x="570.5" y="57"/><text fill="#000000" font-family="sans-serif" font-size="14" lengthAdjust="spacing" textLength="40" x="527.5" y="78.9951">Proxy</text></g><!--entity ftsmm--><g id="elem_ftsmm"><rect fill="#F1F1F1" height="39.2969" rx="2.5" ry="2.5" style="stroke:#181818;stroke-width:0.5;" width="153" x="365" y="256"/><polygon fill="#F1F1F1" points="501,261,501,275,513,275,513,267,507,261,501,261" style="stroke:#181818;stroke-width:0.5;"/><line style="stroke:#181818;stroke-width:0.5;" x1="507" x2="507" y1="261" y2="267"/><line style="stroke:#181818;stroke-width:0.5;" x1="513" x2="507" y1="267" y2="267"/><text fill="#000000" font-family="sans-serif" font-size="14" lengthAdjust="spacing" textLength="123" x="375" y="281.9951">FTSearch module</text></g><!--entity ftsmr1--><g id="elem_ftsmr1"><rect fill="#F1F1F1" height="39.2969" rx="2.5" ry="2.5" style="stroke:#181818;stroke-width:0.5;" width="153" x="666" y="499"/><polygon fill="#F1F1F1" points="802,504,802,518,814,518,814,510,808,504,802,504" style="stroke:#181818;stroke-width:0.5;"/><line style="stroke:#181818;stroke-width:0.5;" x1="808" x2="808" y1="504" y2="510"/><line style="stroke:#181818;stroke-width:0.5;" x1="814" x2="808" y1="510" y2="510"/><text fill="#000000" font-family="sans-serif" font-size="14" lengthAdjust="spacing" textLength="123" x="676" y="524.9951">FTSearch module</text></g><!--entity ftsmr2--><g id="elem_ftsmr2"><rect fill="#F1F1F1" height="39.2969" rx="2.5" ry="2.5" style="stroke:#181818;stroke-width:0.5;" width="153" x="357" y="499"/><polygon fill="#F1F1F1" points="493,504,493,518,505,518,505,510,499,504,493,504" style="stroke:#181818;stroke-width:0.5;"/><line style="stroke:#181818;stroke-width:0.5;" x1="499" x2="499" y1="504" y2="510"/><line style="stroke:#181818;stroke-width:0.5;" x1="505" x2="499" y1="510" y2="510"/><text fill="#000000" font-family="sans-serif" font-size="14" lengthAdjust="spacing" textLength="123" x="367" y="524.9951">FTSearch module</text></g><!--entity ftsi1--><g id="elem_ftsi1"><rect fill="#F1F1F1" height="46.2969" rx="2.5" ry="2.5" style="stroke:#181818;stroke-width:0.5;" width="105" x="160" y="667"/><rect fill="#F1F1F1" height="10" style="stroke:#181818;stroke-width:0.5;" width="15" x="245" y="672"/><rect fill="#F1F1F1" height="2" style="stroke:#181818;stroke-width:0.5;" width="4" x="243" y="674"/><rect fill="#F1F1F1" height="2" style="stroke:#181818;stroke-width:0.5;" width="4" x="243" y="678"/><text fill="#000000" font-family="sans-serif" font-size="14" lengthAdjust="spacing" textLength="65" x="175" y="699.9951">FTSIndex</text></g><!--entity ftsi2--><g id="elem_ftsi2"><rect fill="#F1F1F1" height="46.2969" rx="2.5" ry="2.5" style="stroke:#181818;stroke-width:0.5;" width="105" x="857" y="667"/><rect fill="#F1F1F1" height="10" style="stroke:#181818;stroke-width:0.5;" width="15" x="942" y="672"/><rect fill="#F1F1F1" height="2" style="stroke:#181818;stroke-width:0.5;" width="4" x="940" y="674"/><rect fill="#F1F1F1" height="2" style="stroke:#181818;stroke-width:0.5;" width="4" x="940" y="678"/><text fill="#000000" font-family="sans-serif" font-size="14" lengthAdjust="spacing" textLength="65" x="872" y="699.9951">FTSIndex</text></g><g id="elem_GMN15"><path d="M6,670 L6,710.2656 A0,0 0 0 0 6,710.2656 L125,710.2656 A0,0 0 0 0 125,710.2656 L125,694 L159.995,690 L125,686 L125,680 L115,670 L6,670 A0,0 0 0 0 6,670 " fill="#FEFFDD" style="stroke:#181818;stroke-width:0.5;"/><path d="M115,670 L115,680 L125,680 L115,670 " fill="#FEFFDD" style="stroke:#181818;stroke-width:0.5;"/><text fill="#000000" font-family="sans-serif" font-size="13" lengthAdjust="spacing" textLength="98" x="12" y="687.0669">Full text search</text><text fill="#000000" font-family="sans-serif" font-size="13" lengthAdjust="spacing" textLength="35" x="16" y="702.1997">index</text></g><!--link mredis to r1redis--><g id="link_mredis_r1redis"><path d="M330.1208,319.0076 C330.1434,319.1457 330.1662,319.2838 330.1892,319.4221 C330.3737,320.5279 330.5748,321.6372 330.7938,322.7476 C331.67,327.1889 332.8326,331.6468 334.3589,335.967 C337.4116,344.6073 341.9193,352.6965 348.5,359 C406.604,414.656 457.122,351.252 526.5,392 C557.244,410.057 582.9183,440.7413 601.0656,467.2485 C610.1393,480.5021 617.3313,492.7115 622.3344,501.7761 " fill="none" id="mredis-to-r1redis" style="stroke:#181818;stroke-width:1.0;"/><polygon fill="#181818" points="622.3344,501.7761,621.4874,491.9637,619.9183,497.3986,614.4834,495.8295,622.3344,501.7761" style="stroke:#181818;stroke-width:1.0;"/><text fill="#000000" font-family="sans-serif" font-size="13" lengthAdjust="spacing" textLength="66" x="507.5" y="380.0669">replication</text></g><!--link mredis to r2redis--><g id="link_mredis_r2redis"><path d="M328.072,319.5211 C328.0235,320.98 327.9742,322.4653 327.9241,323.9751 C327.8239,326.9946 327.7204,330.1124 327.6141,333.3144 C327.4015,339.7184 327.1777,346.4591 326.9465,353.4243 C326.4841,367.3547 325.9918,382.1829 325.4996,397.011 C325.0074,411.8391 324.5152,426.6669 324.0528,440.5964 C323.9372,444.0788 323.8235,447.505 323.7121,450.8611 C323.6564,452.5391 323.6012,454.1996 323.5468,455.8407 " fill="none" id="mredis-to-r2redis" style="stroke:#181818;stroke-width:1.0;"/><polygon fill="#181818" points="323.5468,455.8407,327.8431,446.9784,323.7126,450.8435,319.8476,446.713,323.5468,455.8407" style="stroke:#181818;stroke-width:1.0;"/></g><!--link mredis to ftsi1--><g id="link_mredis_ftsi1"><path d="M321.3523,305.2269 C321.249,305.5913 321.1448,305.9586 321.0398,306.3289 C319.3592,312.2539 317.4644,318.9342 315.3888,326.2522 C307.0861,355.5243 295.8893,394.9998 283.9339,437.15 C260.023,521.4505 233.0775,616.45 220.181,661.919 " fill="none" id="mredis-to-ftsi1" style="stroke:#181818;stroke-width:1.0;"/><polygon fill="#181818" points="218.779,666.861,225.0833,659.2942,220.1435,662.0508,217.3869,657.111,218.779,666.861" style="stroke:#181818;stroke-width:1.0;"/></g><!--link p to mredis--><g id="link_p_mredis"><path d="M512.159,73.76 C465.143,80.425 388.768,98.773 348.5,149 C339.816,159.8318 334.2555,172.9328 330.8071,186.5303 C329.0828,193.329 327.8866,200.2518 327.092,207.0771 C326.8934,208.7834 326.7198,210.4837 326.5694,212.1744 C326.5506,212.3857 326.5321,212.5969 326.5141,212.8079 " fill="none" id="p-to-mredis" style="stroke:#181818;stroke-width:1.0;"/><polygon fill="#181818" points="326.5141,212.8079,331.2679,204.1823,326.941,207.8262,323.2971,203.4992,326.5141,212.8079" style="stroke:#181818;stroke-width:1.0;"/><text fill="#000000" font-family="sans-serif" font-size="13" lengthAdjust="spacing" textLength="32" x="375.5" y="137.0669">write</text></g><!--link p to r1redis--><g id="link_p_r1redis"><path d="M556.368,92.192 C564.176,136.987 582.4815,242.009 598.9474,336.4771 C607.1803,383.7112 614.9533,428.3068 620.7243,461.4163 C621.085,463.4856 621.4379,465.5101 621.7825,467.4876 C621.9549,468.4763 622.1252,469.4533 622.2934,470.4182 " fill="none" id="p-to-r1redis" style="stroke:#181818;stroke-width:1.0;"/><polygon fill="#181818" points="622.2934,470.4182,624.6885,460.865,621.4348,465.4925,616.8074,462.2387,622.2934,470.4182" style="stroke:#181818;stroke-width:1.0;"/><text fill="#000000" font-family="sans-serif" font-size="13" lengthAdjust="spacing" textLength="29" x="603.5" y="280.0669">read</text></g><!--link p to ftsi1--><g id="link_p_ftsi1"><path d="M512.425,70.178 C457.419,72.833 360.06,86.685 313.5,149 C192.162,311.398 202.687,576.377 209.755,661.6474 " fill="none" id="p-to-ftsi1" style="stroke:#181818;stroke-width:1.0;"/><polygon fill="#181818" points="210.193,666.7644,213.4103,657.4558,209.7663,661.7826,205.4395,658.1386,210.193,666.7644" style="stroke:#181818;stroke-width:1.0;"/><text fill="#000000" font-family="sans-serif" font-size="13" lengthAdjust="spacing" textLength="43" x="225.5" y="380.0669">search</text></g><!--link p to ftsi2--><g id="link_p_ftsi2"><path d="M579.879,92.115 C637.3,140.123 770.381,260.222 835.5,392 C881.226,484.533 900.164,607.625 906.641,661.6353 " fill="none" id="p-to-ftsi2" style="stroke:#181818;stroke-width:1.0;"/><polygon fill="#181818" points="907.229,666.6431,910.1512,657.2377,906.6454,661.6773,902.2059,658.1715,907.229,666.6431" style="stroke:#181818;stroke-width:1.0;"/><text fill="#000000" font-family="sans-serif" font-size="13" lengthAdjust="spacing" textLength="43" x="831.5" y="380.0669">search</text></g><!--SRC=[bP6xQiGm44LxVSNWVWkhT95o8KKWR5Ac4TQO2FGmerdM8Uo_Ho-7E2ORLfLqxvqv6ia7ZT0zKrW-mATz1vy2qXg3cuD7pr0z5M4MLo5o1fvKPAHTyeJQn9nqL7RL1r34Pb8ZGtTyVK55upkueCysmL9uukXSILw_0IUShHbLjgd_cqFzlI3gRv3a3PAycoH_aLAmmVOJ9U_HQrnQiUbJbG-CO77Y0OvdQu5nOOY5zUR1vFYki_otiyptQVzpE3oiJpW0rGviWj_uTV2VKhsWcCl1jV8B6SQYRPigNSMrRcWZR5Ivgby0]--></g></svg>