<?xml version="1.0" encoding="us-ascii" standalone="no"?><svg xmlns="http://www.w3.org/2000/svg" xmlns:xlink="http://www.w3.org/1999/xlink" contentStyleType="text/css" height="196px" preserveAspectRatio="none" style="width:807px;height:196px;background:#FFFFFF;" version="1.1" viewBox="0 0 807 196" width="807px" zoomAndPan="magnify"><defs/><g><!--entity d--><g id="elem_d"><path d="M161.5,115.5 L161.5,187.3906 A2.5,2.5 0 0 0 164,189.8906 L300,189.8906 A2.5,2.5 0 0 0 302.5,187.3906 L302.5,123 L292.5,113 L164,113 A2.5,2.5 0 0 0 161.5,115.5 " fill="#F1F1F1" style="stroke:#181818;stroke-width:0.5;"/><path d="M292.5,113 L292.5,120.5 A2.5,2.5 0 0 0 295,123 L302.5,123 " fill="#F1F1F1" style="stroke:#181818;stroke-width:0.5;"/><text fill="#000000" font-family="sans-serif" font-size="14" lengthAdjust="spacing" textLength="75" x="171.5" y="135.9951">Document</text><line style="stroke:#181818;stroke-width:1.0;" x1="162.5" x2="301.5" y1="139.2969" y2="139.2969"/><text fill="#000000" font-family="sans-serif" font-size="14" lengthAdjust="spacing" textLength="121" x="171.5" y="156.292">@f1:Hello World!</text><text fill="#000000" font-family="sans-serif" font-size="14" lengthAdjust="spacing" textLength="109" x="171.5" y="172.5889">@f2:Some text</text></g><!--entity repl--><g id="elem_repl"><rect fill="#F1F1F1" height="46.2969" rx="2.5" ry="2.5" style="stroke:#181818;stroke-width:0.5;" width="122" x="7" y="7"/><rect fill="#F1F1F1" height="10" style="stroke:#181818;stroke-width:0.5;" width="15" x="109" y="12"/><rect fill="#F1F1F1" height="2" style="stroke:#181818;stroke-width:0.5;" width="4" x="107" y="14"/><rect fill="#F1F1F1" height="2" style="stroke:#181818;stroke-width:0.5;" width="4" x="107" y="18"/><text fill="#000000" font-family="sans-serif" font-size="14" lengthAdjust="spacing" textLength="82" x="22" y="39.9951">Replication</text></g><!--entity s--><g id="elem_s"><rect fill="#F1F1F1" height="46.2969" rx="2.5" ry="2.5" style="stroke:#181818;stroke-width:0.5;" width="97" x="22.5" y="128.5"/><rect fill="#F1F1F1" height="10" style="stroke:#181818;stroke-width:0.5;" width="15" x="99.5" y="133.5"/><rect fill="#F1F1F1" height="2" style="stroke:#181818;stroke-width:0.5;" width="4" x="97.5" y="135.5"/><rect fill="#F1F1F1" height="2" style="stroke:#181818;stroke-width:0.5;" width="4" x="97.5" y="139.5"/><text fill="#000000" font-family="sans-serif" font-size="14" lengthAdjust="spacing" textLength="57" x="37.5" y="161.4951">Storage</text></g><!--entity pq--><g id="elem_pq"><path d="M169,17 L303,17 C308,17 308,30.1484 308,30.1484 C308,30.1484 308,43.2969 303,43.2969 L169,43.2969 C164,43.2969 164,30.1484 164,30.1484 C164,30.1484 164,17 169,17 " fill="#F1F1F1" style="stroke:#181818;stroke-width:0.5;"/><path d="M303,17 C298,17 298,30.1484 298,30.1484 C298,43.2969 303,43.2969 303,43.2969 " fill="none" style="stroke:#181818;stroke-width:0.5;"/><text fill="#000000" font-family="sans-serif" font-size="14" lengthAdjust="spacing" textLength="124" x="169" y="34.9951">Processing queue</text></g><!--entity t--><g id="elem_t"><rect fill="#F1F1F1" height="46.2969" rx="2.5" ry="2.5" style="stroke:#181818;stroke-width:0.5;" width="112" x="343" y="7"/><rect fill="#F1F1F1" height="10" style="stroke:#181818;stroke-width:0.5;" width="15" x="435" y="12"/><rect fill="#F1F1F1" height="2" style="stroke:#181818;stroke-width:0.5;" width="4" x="433" y="14"/><rect fill="#F1F1F1" height="2" style="stroke:#181818;stroke-width:0.5;" width="4" x="433" y="18"/><text fill="#000000" font-family="sans-serif" font-size="14" lengthAdjust="spacing" textLength="72" x="358" y="39.9951">Tokenizer</text></g><!--entity tf--><g id="elem_tf"><rect fill="#F1F1F1" height="46.2969" rx="2.5" ry="2.5" style="stroke:#181818;stroke-width:0.5;" width="132" x="490" y="7"/><rect fill="#F1F1F1" height="10" style="stroke:#181818;stroke-width:0.5;" width="15" x="602" y="12"/><rect fill="#F1F1F1" height="2" style="stroke:#181818;stroke-width:0.5;" width="4" x="600" y="14"/><rect fill="#F1F1F1" height="2" style="stroke:#181818;stroke-width:0.5;" width="4" x="600" y="18"/><text fill="#000000" font-family="sans-serif" font-size="14" lengthAdjust="spacing" textLength="92" x="505" y="39.9951">Token filters</text></g><g id="elem_GMN8"><path d="M457,139 L457,164.1328 A0,0 0 0 0 457,164.1328 L655,164.1328 A0,0 0 0 0 655,164.1328 L655,149 L645,139 L560,139 L556,53.197 L552,139 L457,139 A0,0 0 0 0 457,139 " fill="#FEFFDD" style="stroke:#181818;stroke-width:0.5;"/><path d="M645,139 L645,149 L655,149 L645,139 " fill="#FEFFDD" style="stroke:#181818;stroke-width:0.5;"/><text fill="#000000" font-family="sans-serif" font-size="13" lengthAdjust="spacing" textLength="177" x="463" y="156.0669">stop words, porterstemmer</text></g><!--entity i--><g id="elem_i"><rect fill="#F1F1F1" height="46.2969" rx="2.5" ry="2.5" style="stroke:#181818;stroke-width:0.5;" width="144" x="657" y="7"/><rect fill="#F1F1F1" height="10" style="stroke:#181818;stroke-width:0.5;" width="15" x="781" y="12"/><rect fill="#F1F1F1" height="2" style="stroke:#181818;stroke-width:0.5;" width="4" x="779" y="14"/><rect fill="#F1F1F1" height="2" style="stroke:#181818;stroke-width:0.5;" width="4" x="779" y="18"/><text fill="#000000" font-family="sans-serif" font-size="14" lengthAdjust="spacing" textLength="104" x="672" y="39.9951">Inverted index</text></g><!--link repl to s--><g id="link_repl_s"><path codeLine="23" d="M68.5572,53.197 C69.054,72.984 69.7827,102.0118 70.3149,123.2113 " fill="none" id="repl-to-s" style="stroke:#181818;stroke-width:1.0;"/><polygon fill="#181818" points="70.4457,128.4219,74.2184,119.3243,70.3201,123.4235,66.2209,119.5252,70.4457,128.4219" style="stroke:#181818;stroke-width:1.0;"/></g><!--link s to d--><g id="link_s_d"><path codeLine="24" d="M119.74,151.5 C131.891,151.5 144.041,151.5 156.192,151.5 " fill="none" id="s-to-d" style="stroke:#181818;stroke-width:1.0;"/><polygon fill="#181818" points="161.399,151.5,152.399,147.5,156.399,151.5,152.399,155.5,161.399,151.5" style="stroke:#181818;stroke-width:1.0;"/></g><!--link repl to pq--><g id="link_repl_pq"><path codeLine="25" d="M129.031,30 C138.876,30 148.72,30 158.565,30 " fill="none" id="repl-to-pq" style="stroke:#181818;stroke-width:1.0;"/><polygon fill="#181818" points="163.713,30,154.713,26,158.713,30,154.713,34,163.713,30" style="stroke:#181818;stroke-width:1.0;"/></g><!--link pq to d--><g id="link_pq_d"><path codeLine="26" d="M235.587,43.339 C235.08,58.474 234.195,84.936 233.43,107.7769 " fill="none" id="pq-to-d" style="stroke:#181818;stroke-width:1.0;stroke-dasharray:7.0,7.0;"/><polygon fill="#181818" points="233.259,112.8906,237.5581,104.0296,233.4264,107.8934,229.5626,103.7617,233.259,112.8906" style="stroke:#181818;stroke-width:1.0;"/></g><!--link pq to t--><g id="link_pq_t"><path codeLine="27" d="M308.268,30 C318.026,30 327.785,30 337.544,30 " fill="none" id="pq-to-t" style="stroke:#181818;stroke-width:1.0;"/><polygon fill="#181818" points="342.647,30,333.647,26,337.647,30,333.647,34,342.647,30" style="stroke:#181818;stroke-width:1.0;"/></g><!--link t to tf--><g id="link_t_tf"><path codeLine="28" d="M455.115,30 C464.959,30 474.803,30 484.647,30 " fill="none" id="t-to-tf" style="stroke:#181818;stroke-width:1.0;"/><polygon fill="#181818" points="489.794,30,480.794,26,484.794,30,480.794,34,489.794,30" style="stroke:#181818;stroke-width:1.0;"/></g><!--link tf to i--><g id="link_tf_i"><path codeLine="29" d="M622.227,30 C632.053,30 641.879,30 651.706,30 " fill="none" id="tf-to-i" style="stroke:#181818;stroke-width:1.0;"/><polygon fill="#181818" points="656.845,30,647.845,26,651.845,30,647.845,34,656.845,30" style="stroke:#181818;stroke-width:1.0;"/></g><!--SRC=[PL2nJiGm3Dtz5QOpFGd63YS61jXE7D8DYA4qpYaYYTF4lQluUfnmIqMMPx_dPprdz9wlmQqkdW6iyuG6Fm3rFVEq18hIchxl6pxPX-65r8CdpjxStSZ7uSY1K6WL-0IOE2IEwiNkZP9tqoYEOuTZmQpzPk0edCSpDR40p0ijXDqXyqIbQ2fiJ9FJl76-ypT5zqEvYV9VGxr7A9S_tK9a8VnY4GuuO15EUELioZqcpdLGA0JAcqMlyKAg6NJHqDesEO1wXVx9NXCNL30tPbypfXbtkyffeOo0DB0WjXRk5m00]--></g></svg>