<?xml version="1.0" encoding="us-ascii" standalone="no"?><svg xmlns="http://www.w3.org/2000/svg" xmlns:xlink="http://www.w3.org/1999/xlink" contentStyleType="text/css" height="536px" preserveAspectRatio="none" style="width:623px;height:536px;background:#FFFFFF;" version="1.1" viewBox="0 0 623 536" width="623px" zoomAndPan="magnify"><defs/><g><!--cluster m--><g id="cluster_m"><polygon fill="none" points="40,154.5,50,144.5,323,144.5,323,236.5,313,246.5,40,246.5,40,154.5" style="stroke:#181818;stroke-width:1.0;"/><line style="stroke:#181818;stroke-width:1.0;" x1="313" x2="323" y1="154.5" y2="144.5"/><line style="stroke:#181818;stroke-width:1.0;" x1="40" x2="313" y1="154.5" y2="154.5"/><line style="stroke:#181818;stroke-width:1.0;" x1="313" x2="313" y1="154.5" y2="246.5"/><text fill="#000000" font-family="sans-serif" font-size="14" font-weight="bold" lengthAdjust="spacing" textLength="57" x="149" y="170.4951">Master</text></g><!--cluster r1--><g id="cluster_r1"><polygon fill="none" points="16,427.5,26,417.5,299,417.5,299,509.5,289,519.5,16,519.5,16,427.5" style="stroke:#181818;stroke-width:1.0;"/><line style="stroke:#181818;stroke-width:1.0;" x1="289" x2="299" y1="427.5" y2="417.5"/><line style="stroke:#181818;stroke-width:1.0;" x1="16" x2="289" y1="427.5" y2="427.5"/><line style="stroke:#181818;stroke-width:1.0;" x1="289" x2="289" y1="427.5" y2="519.5"/><text fill="#000000" font-family="sans-serif" font-size="14" font-weight="bold" lengthAdjust="spacing" textLength="59" x="124" y="443.4951">Replica</text></g><!--cluster r2--><g id="cluster_r2"><polygon fill="none" points="323,427.5,333,417.5,606,417.5,606,509.5,596,519.5,323,519.5,323,427.5" style="stroke:#181818;stroke-width:1.0;"/><line style="stroke:#181818;stroke-width:1.0;" x1="596" x2="606" y1="427.5" y2="417.5"/><line style="stroke:#181818;stroke-width:1.0;" x1="323" x2="596" y1="427.5" y2="427.5"/><line style="stroke:#181818;stroke-width:1.0;" x1="596" x2="596" y1="427.5" y2="519.5"/><text fill="#000000" font-family="sans-serif" font-size="14" font-weight="bold" lengthAdjust="spacing" textLength="59" x="431" y="443.4951">Replica</text></g><!--entity mr--><g id="elem_mr"><rect fill="#F1F1F1" height="46.2969" rx="2.5" ry="2.5" style="stroke:#181818;stroke-width:0.5;" width="79" x="56.5" y="184.5"/><rect fill="#F1F1F1" height="10" style="stroke:#181818;stroke-width:0.5;" width="15" x="115.5" y="189.5"/><rect fill="#F1F1F1" height="2" style="stroke:#181818;stroke-width:0.5;" width="4" x="113.5" y="191.5"/><rect fill="#F1F1F1" height="2" style="stroke:#181818;stroke-width:0.5;" width="4" x="113.5" y="195.5"/><text fill="#000000" font-family="sans-serif" font-size="14" lengthAdjust="spacing" textLength="39" x="71.5" y="217.4951">Redis</text></g><!--entity mja--><g id="elem_mja"><rect fill="#F1F1F1" height="46.2969" rx="2.5" ry="2.5" style="stroke:#181818;stroke-width:0.5;" width="136" x="171" y="184.5"/><rect fill="#F1F1F1" height="10" style="stroke:#181818;stroke-width:0.5;" width="15" x="287" y="189.5"/><rect fill="#F1F1F1" height="2" style="stroke:#181818;stroke-width:0.5;" width="4" x="285" y="191.5"/><rect fill="#F1F1F1" height="2" style="stroke:#181818;stroke-width:0.5;" width="4" x="285" y="195.5"/><text fill="#000000" font-family="sans-serif" font-size="14" lengthAdjust="spacing" textLength="96" x="186" y="217.4951">Journal Agent</text></g><!--entity r1r--><g id="elem_r1r"><rect fill="#F1F1F1" height="46.2969" rx="2.5" ry="2.5" style="stroke:#181818;stroke-width:0.5;" width="79" x="203.5" y="457.5"/><rect fill="#F1F1F1" height="10" style="stroke:#181818;stroke-width:0.5;" width="15" x="262.5" y="462.5"/><rect fill="#F1F1F1" height="2" style="stroke:#181818;stroke-width:0.5;" width="4" x="260.5" y="464.5"/><rect fill="#F1F1F1" height="2" style="stroke:#181818;stroke-width:0.5;" width="4" x="260.5" y="468.5"/><text fill="#000000" font-family="sans-serif" font-size="14" lengthAdjust="spacing" textLength="39" x="218.5" y="490.4951">Redis</text></g><!--entity r1ja--><g id="elem_r1ja"><rect fill="#F1F1F1" height="46.2969" rx="2.5" ry="2.5" style="stroke:#181818;stroke-width:0.5;" width="136" x="32" y="457.5"/><rect fill="#F1F1F1" height="10" style="stroke:#181818;stroke-width:0.5;" width="15" x="148" y="462.5"/><rect fill="#F1F1F1" height="2" style="stroke:#181818;stroke-width:0.5;" width="4" x="146" y="464.5"/><rect fill="#F1F1F1" height="2" style="stroke:#181818;stroke-width:0.5;" width="4" x="146" y="468.5"/><text fill="#000000" font-family="sans-serif" font-size="14" lengthAdjust="spacing" textLength="96" x="47" y="490.4951">Journal Agent</text></g><!--entity r2r--><g id="elem_r2r"><rect fill="#F1F1F1" height="46.2969" rx="2.5" ry="2.5" style="stroke:#181818;stroke-width:0.5;" width="79" x="510.5" y="457.5"/><rect fill="#F1F1F1" height="10" style="stroke:#181818;stroke-width:0.5;" width="15" x="569.5" y="462.5"/><rect fill="#F1F1F1" height="2" style="stroke:#181818;stroke-width:0.5;" width="4" x="567.5" y="464.5"/><rect fill="#F1F1F1" height="2" style="stroke:#181818;stroke-width:0.5;" width="4" x="567.5" y="468.5"/><text fill="#000000" font-family="sans-serif" font-size="14" lengthAdjust="spacing" textLength="39" x="525.5" y="490.4951">Redis</text></g><!--entity r2ja--><g id="elem_r2ja"><rect fill="#F1F1F1" height="46.2969" rx="2.5" ry="2.5" style="stroke:#181818;stroke-width:0.5;" width="136" x="339" y="457.5"/><rect fill="#F1F1F1" height="10" style="stroke:#181818;stroke-width:0.5;" width="15" x="455" y="462.5"/><rect fill="#F1F1F1" height="2" style="stroke:#181818;stroke-width:0.5;" width="4" x="453" y="464.5"/><rect fill="#F1F1F1" height="2" style="stroke:#181818;stroke-width:0.5;" width="4" x="453" y="468.5"/><text fill="#000000" font-family="sans-serif" font-size="14" lengthAdjust="spacing" textLength="96" x="354" y="490.4951">Journal Agent</text></g><!--entity c--><g id="elem_c"><ellipse cx="96" cy="14" fill="#F1F1F1" rx="8" ry="8" style="stroke:#181818;stroke-width:0.5;"/><path d="M96,22 L96,49 M83,30 L109,30 M96,49 L83,64 M96,49 L109,64 " fill="none" style="stroke:#181818;stroke-width:0.5;"/><text fill="#000000" font-family="sans-serif" font-size="14" lengthAdjust="spacing" textLength="43" x="74.5" y="78.4951">Client</text></g><!--entity j--><g id="elem_j"><path d="M205,319.5 C205,309.5 239,309.5 239,309.5 C239,309.5 273,309.5 273,319.5 L273,344.7969 C273,354.7969 239,354.7969 239,354.7969 C239,354.7969 205,354.7969 205,344.7969 L205,319.5 " fill="#F1F1F1" style="stroke:#181818;stroke-width:0.5;"/><path d="M205,319.5 C205,329.5 239,329.5 239,329.5 C239,329.5 273,329.5 273,319.5 " fill="none" style="stroke:#181818;stroke-width:0.5;"/><text fill="#000000" font-family="sans-serif" font-size="14" lengthAdjust="spacing" textLength="48" x="215" y="346.4951">Journal</text></g><!--link mr to mja--><g id="link_mr_mja"><path d="M135.66,207.5 C145.629,207.5 155.598,207.5 165.567,207.5 " fill="none" id="mr-to-mja" style="stroke:#181818;stroke-width:1.0;"/><polygon fill="#181818" points="170.78,207.5,161.78,203.5,165.78,207.5,161.78,211.5,170.78,207.5" style="stroke:#181818;stroke-width:1.0;"/></g><!--link r1ja to r1r--><g id="link_r1ja_r1r"><path d="M168.148,480.5 C178.108,480.5 188.067,480.5 198.027,480.5 " fill="none" id="r1ja-to-r1r" style="stroke:#181818;stroke-width:1.0;"/><polygon fill="#181818" points="203.235,480.5,194.235,476.5,198.235,480.5,194.235,484.5,203.235,480.5" style="stroke:#181818;stroke-width:1.0;"/></g><!--link r2ja to r2r--><g id="link_r2ja_r2r"><path d="M475.148,480.5 C485.108,480.5 495.067,480.5 505.027,480.5 " fill="none" id="r2ja-to-r2r" style="stroke:#181818;stroke-width:1.0;"/><polygon fill="#181818" points="510.235,480.5,501.235,476.5,505.235,480.5,501.235,484.5,510.235,480.5" style="stroke:#181818;stroke-width:1.0;"/></g><!--link c to mr--><g id="link_c_mr"><path d="M96,81.666 C96,111.442 96,152.526 96,179.298 " fill="none" id="c-to-mr" style="stroke:#181818;stroke-width:1.0;"/><polygon fill="#181818" points="96,184.454,100,175.454,96,179.454,92,175.454,96,184.454" style="stroke:#181818;stroke-width:1.0;"/><text fill="#000000" font-family="sans-serif" font-size="13" lengthAdjust="spacing" textLength="39" x="97" y="124.5669">writes</text></g><!--link mja to j--><g id="link_mja_j"><path d="M239,230.684 C239,251.365 239,282.244 239,304.274 " fill="none" id="mja-to-j" style="stroke:#181818;stroke-width:1.0;"/><polygon fill="#181818" points="239,309.392,243,300.392,239,304.392,235,300.392,239,309.392" style="stroke:#181818;stroke-width:1.0;"/><text fill="#000000" font-family="sans-serif" font-size="13" lengthAdjust="spacing" textLength="116" x="240" y="275.5669">speculative writes</text></g><!--link j to r1ja--><g id="link_j_r1ja"><path d="M218.49,354.617 C193.484,380.972 151.261,425.473 124.551,453.6246 " fill="none" id="j-to-r1ja" style="stroke:#181818;stroke-width:1.0;"/><polygon fill="#181818" points="121.05,457.3145,130.1464,453.5388,124.4915,453.6873,124.3429,448.0324,121.05,457.3145" style="stroke:#181818;stroke-width:1.0;"/><text fill="#000000" font-family="sans-serif" font-size="13" lengthAdjust="spacing" textLength="108" x="192" y="397.5669">commited writes</text></g><!--link j to r2ja--><g id="link_j_r2ja"><path d="M270.358,354.686 C282.69,363.567 296.79,374.172 309,384.5 C335.12,406.594 362.948,433.982 382.25,453.667 " fill="none" id="j-to-r2ja" style="stroke:#181818;stroke-width:1.0;"/><polygon fill="#181818" points="385.994,457.4973,382.5638,448.2651,382.4991,453.9216,376.8426,453.8569,385.994,457.4973" style="stroke:#181818;stroke-width:1.0;"/><text fill="#000000" font-family="sans-serif" font-size="13" lengthAdjust="spacing" textLength="108" x="326" y="397.5669">commited writes</text></g><!--SRC=[ZO-xRW8n44LxVyM89jKMwv8YKaGNAGr_CDYZn8jV6fkW2F7lU2nl4m72bUVUOvtn6vIZYnaP0tWNgVvbWiJr9oc5fYQ6dNSKAs01erHCbk0BIoMM9C15GJicXPoYO7kohlIA_pMRptJYY1u-ljkuwSo27GeCqtkVhafPh7Z0Gh3o3Lo6UK_PEuCIyVpOpVCBSfw7NIxYbrVNEoBzHAHV4UbLf8T8Tv61oQPpb9ypRE7Chb9HGPYHBoqkcSp9OtM_j29gWQdlsz2jk4EBxTgEKjyhRm00]--></g></svg>