<?xml version="1.0" encoding="us-ascii" standalone="no"?><svg xmlns="http://www.w3.org/2000/svg" xmlns:xlink="http://www.w3.org/1999/xlink" contentStyleType="text/css" height="602px" preserveAspectRatio="none" style="width:604px;height:602px;background:#FFFFFF;" version="1.1" viewBox="0 0 604 602" width="604px" zoomAndPan="magnify"><defs/><g><!--class Server--><g id="elem_Server"><rect codeLine="1" fill="#F1F1F1" height="48" id="Server" rx="2.5" ry="2.5" style="stroke:#181818;stroke-width:0.5;" width="79" x="182.5" y="7"/><ellipse cx="197.5" cy="23" fill="#ADD1B2" rx="11" ry="11" style="stroke:#181818;stroke-width:1.0;"/><path d="M199.8438,18.6719 C198.9063,18.2344 198.3125,18.0938 197.4375,18.0938 C194.8125,18.0938 192.8125,20.1719 192.8125,22.8906 L192.8125,24.0156 C192.8125,26.5938 194.9219,28.4844 197.8125,28.4844 C199.0313,28.4844 200.1875,28.1875 200.9375,27.6406 C201.5156,27.2344 201.8438,26.7813 201.8438,26.3906 C201.8438,25.9375 201.4531,25.5469 200.9844,25.5469 C200.7656,25.5469 200.5625,25.625 200.375,25.8125 C199.9219,26.2969 199.9219,26.2969 199.7344,26.3906 C199.3125,26.6563 198.625,26.7813 197.8594,26.7813 C195.8125,26.7813 194.5156,25.6875 194.5156,23.9844 L194.5156,22.8906 C194.5156,21.1094 195.7656,19.7969 197.5,19.7969 C198.0781,19.7969 198.6875,19.9531 199.1563,20.2031 C199.6406,20.4844 199.8125,20.7031 199.9063,21.1094 C199.9688,21.5156 200,21.6406 200.1406,21.7656 C200.2813,21.9063 200.5156,22.0156 200.7344,22.0156 C201,22.0156 201.2656,21.875 201.4375,21.6563 C201.5469,21.5 201.5781,21.3125 201.5781,20.8906 L201.5781,19.4688 C201.5781,19.0313 201.5625,18.9063 201.4688,18.75 C201.3125,18.4844 201.0313,18.3438 200.7344,18.3438 C200.4375,18.3438 200.2344,18.4375 200.0156,18.75 L199.8438,18.6719 Z " fill="#000000"/><text fill="#000000" font-family="sans-serif" font-size="14" lengthAdjust="spacing" textLength="47" x="211.5" y="27.8467">Server</text><line style="stroke:#181818;stroke-width:0.5;" x1="183.5" x2="260.5" y1="39" y2="39"/><line style="stroke:#181818;stroke-width:0.5;" x1="183.5" x2="260.5" y1="47" y2="47"/></g><!--class rp--><g id="elem_rp"><rect codeLine="3" fill="#F1F1F1" height="48" id="rp" rx="2.5" ry="2.5" style="stroke:#181818;stroke-width:0.5;" width="118" x="7" y="115"/><ellipse cx="22" cy="131" fill="#ADD1B2" rx="11" ry="11" style="stroke:#181818;stroke-width:1.0;"/><path d="M24.3438,126.6719 C23.4063,126.2344 22.8125,126.0938 21.9375,126.0938 C19.3125,126.0938 17.3125,128.1719 17.3125,130.8906 L17.3125,132.0156 C17.3125,134.5938 19.4219,136.4844 22.3125,136.4844 C23.5313,136.4844 24.6875,136.1875 25.4375,135.6406 C26.0156,135.2344 26.3438,134.7813 26.3438,134.3906 C26.3438,133.9375 25.9531,133.5469 25.4844,133.5469 C25.2656,133.5469 25.0625,133.625 24.875,133.8125 C24.4219,134.2969 24.4219,134.2969 24.2344,134.3906 C23.8125,134.6563 23.125,134.7813 22.3594,134.7813 C20.3125,134.7813 19.0156,133.6875 19.0156,131.9844 L19.0156,130.8906 C19.0156,129.1094 20.2656,127.7969 22,127.7969 C22.5781,127.7969 23.1875,127.9531 23.6563,128.2031 C24.1406,128.4844 24.3125,128.7031 24.4063,129.1094 C24.4688,129.5156 24.5,129.6406 24.6406,129.7656 C24.7813,129.9063 25.0156,130.0156 25.2344,130.0156 C25.5,130.0156 25.7656,129.875 25.9375,129.6563 C26.0469,129.5 26.0781,129.3125 26.0781,128.8906 L26.0781,127.4688 C26.0781,127.0313 26.0625,126.9063 25.9688,126.75 C25.8125,126.4844 25.5313,126.3438 25.2344,126.3438 C24.9375,126.3438 24.7344,126.4375 24.5156,126.75 L24.3438,126.6719 Z " fill="#000000"/><text fill="#000000" font-family="sans-serif" font-size="14" lengthAdjust="spacing" textLength="86" x="36" y="135.8467">RESP Parser</text><line style="stroke:#181818;stroke-width:0.5;" x1="8" x2="124" y1="147" y2="147"/><line style="stroke:#181818;stroke-width:0.5;" x1="8" x2="124" y1="155" y2="155"/></g><!--class qp--><g id="elem_qp"><rect codeLine="5" fill="#F1F1F1" height="48" id="qp" rx="2.5" ry="2.5" style="stroke:#181818;stroke-width:0.5;" width="124" x="160" y="115"/><ellipse cx="175" cy="131" fill="#ADD1B2" rx="11" ry="11" style="stroke:#181818;stroke-width:1.0;"/><path d="M177.3438,126.6719 C176.4063,126.2344 175.8125,126.0938 174.9375,126.0938 C172.3125,126.0938 170.3125,128.1719 170.3125,130.8906 L170.3125,132.0156 C170.3125,134.5938 172.4219,136.4844 175.3125,136.4844 C176.5313,136.4844 177.6875,136.1875 178.4375,135.6406 C179.0156,135.2344 179.3438,134.7813 179.3438,134.3906 C179.3438,133.9375 178.9531,133.5469 178.4844,133.5469 C178.2656,133.5469 178.0625,133.625 177.875,133.8125 C177.4219,134.2969 177.4219,134.2969 177.2344,134.3906 C176.8125,134.6563 176.125,134.7813 175.3594,134.7813 C173.3125,134.7813 172.0156,133.6875 172.0156,131.9844 L172.0156,130.8906 C172.0156,129.1094 173.2656,127.7969 175,127.7969 C175.5781,127.7969 176.1875,127.9531 176.6563,128.2031 C177.1406,128.4844 177.3125,128.7031 177.4063,129.1094 C177.4688,129.5156 177.5,129.6406 177.6406,129.7656 C177.7813,129.9063 178.0156,130.0156 178.2344,130.0156 C178.5,130.0156 178.7656,129.875 178.9375,129.6563 C179.0469,129.5 179.0781,129.3125 179.0781,128.8906 L179.0781,127.4688 C179.0781,127.0313 179.0625,126.9063 178.9688,126.75 C178.8125,126.4844 178.5313,126.3438 178.2344,126.3438 C177.9375,126.3438 177.7344,126.4375 177.5156,126.75 L177.3438,126.6719 Z " fill="#000000"/><text fill="#000000" font-family="sans-serif" font-size="14" lengthAdjust="spacing" textLength="92" x="189" y="135.8467">Query parser</text><line style="stroke:#181818;stroke-width:0.5;" x1="161" x2="283" y1="147" y2="147"/><line style="stroke:#181818;stroke-width:0.5;" x1="161" x2="283" y1="155" y2="155"/></g><!--class se--><g id="elem_se"><rect codeLine="7" fill="#F1F1F1" height="48" id="se" rx="2.5" ry="2.5" style="stroke:#181818;stroke-width:0.5;" width="134" x="319" y="115"/><ellipse cx="334" cy="131" fill="#ADD1B2" rx="11" ry="11" style="stroke:#181818;stroke-width:1.0;"/><path d="M336.3438,126.6719 C335.4063,126.2344 334.8125,126.0938 333.9375,126.0938 C331.3125,126.0938 329.3125,128.1719 329.3125,130.8906 L329.3125,132.0156 C329.3125,134.5938 331.4219,136.4844 334.3125,136.4844 C335.5313,136.4844 336.6875,136.1875 337.4375,135.6406 C338.0156,135.2344 338.3438,134.7813 338.3438,134.3906 C338.3438,133.9375 337.9531,133.5469 337.4844,133.5469 C337.2656,133.5469 337.0625,133.625 336.875,133.8125 C336.4219,134.2969 336.4219,134.2969 336.2344,134.3906 C335.8125,134.6563 335.125,134.7813 334.3594,134.7813 C332.3125,134.7813 331.0156,133.6875 331.0156,131.9844 L331.0156,130.8906 C331.0156,129.1094 332.2656,127.7969 334,127.7969 C334.5781,127.7969 335.1875,127.9531 335.6563,128.2031 C336.1406,128.4844 336.3125,128.7031 336.4063,129.1094 C336.4688,129.5156 336.5,129.6406 336.6406,129.7656 C336.7813,129.9063 337.0156,130.0156 337.2344,130.0156 C337.5,130.0156 337.7656,129.875 337.9375,129.6563 C338.0469,129.5 338.0781,129.3125 338.0781,128.8906 L338.0781,127.4688 C338.0781,127.0313 338.0625,126.9063 337.9688,126.75 C337.8125,126.4844 337.5313,126.3438 337.2344,126.3438 C336.9375,126.3438 336.7344,126.4375 336.5156,126.75 L336.3438,126.6719 Z " fill="#000000"/><text fill="#000000" font-family="sans-serif" font-size="14" lengthAdjust="spacing" textLength="102" x="348" y="135.8467">Search Engine</text><line style="stroke:#181818;stroke-width:0.5;" x1="320" x2="452" y1="147" y2="147"/><line style="stroke:#181818;stroke-width:0.5;" x1="320" x2="452" y1="155" y2="155"/></g><!--class i--><g id="elem_i"><rect codeLine="9" fill="#F1F1F1" height="48" id="i" rx="2.5" ry="2.5" style="stroke:#181818;stroke-width:0.5;" width="71" x="350.5" y="223"/><ellipse cx="365.5" cy="239" fill="#ADD1B2" rx="11" ry="11" style="stroke:#181818;stroke-width:1.0;"/><path d="M367.8438,234.6719 C366.9063,234.2344 366.3125,234.0938 365.4375,234.0938 C362.8125,234.0938 360.8125,236.1719 360.8125,238.8906 L360.8125,240.0156 C360.8125,242.5938 362.9219,244.4844 365.8125,244.4844 C367.0313,244.4844 368.1875,244.1875 368.9375,243.6406 C369.5156,243.2344 369.8438,242.7813 369.8438,242.3906 C369.8438,241.9375 369.4531,241.5469 368.9844,241.5469 C368.7656,241.5469 368.5625,241.625 368.375,241.8125 C367.9219,242.2969 367.9219,242.2969 367.7344,242.3906 C367.3125,242.6563 366.625,242.7813 365.8594,242.7813 C363.8125,242.7813 362.5156,241.6875 362.5156,239.9844 L362.5156,238.8906 C362.5156,237.1094 363.7656,235.7969 365.5,235.7969 C366.0781,235.7969 366.6875,235.9531 367.1563,236.2031 C367.6406,236.4844 367.8125,236.7031 367.9063,237.1094 C367.9688,237.5156 368,237.6406 368.1406,237.7656 C368.2813,237.9063 368.5156,238.0156 368.7344,238.0156 C369,238.0156 369.2656,237.875 369.4375,237.6563 C369.5469,237.5 369.5781,237.3125 369.5781,236.8906 L369.5781,235.4688 C369.5781,235.0313 369.5625,234.9063 369.4688,234.75 C369.3125,234.4844 369.0313,234.3438 368.7344,234.3438 C368.4375,234.3438 368.2344,234.4375 368.0156,234.75 L367.8438,234.6719 Z " fill="#000000"/><text fill="#000000" font-family="sans-serif" font-size="14" lengthAdjust="spacing" textLength="39" x="379.5" y="243.8467">Index</text><line style="stroke:#181818;stroke-width:0.5;" x1="351.5" x2="420.5" y1="255" y2="255"/><line style="stroke:#181818;stroke-width:0.5;" x1="351.5" x2="420.5" y1="263" y2="263"/></g><!--class s--><g id="elem_s"><rect codeLine="11" fill="#F1F1F1" height="48" id="s" rx="2.5" ry="2.5" style="stroke:#181818;stroke-width:0.5;" width="89" x="418.5" y="439"/><ellipse cx="433.5" cy="455" fill="#ADD1B2" rx="11" ry="11" style="stroke:#181818;stroke-width:1.0;"/><path d="M435.8438,450.6719 C434.9063,450.2344 434.3125,450.0938 433.4375,450.0938 C430.8125,450.0938 428.8125,452.1719 428.8125,454.8906 L428.8125,456.0156 C428.8125,458.5938 430.9219,460.4844 433.8125,460.4844 C435.0313,460.4844 436.1875,460.1875 436.9375,459.6406 C437.5156,459.2344 437.8438,458.7813 437.8438,458.3906 C437.8438,457.9375 437.4531,457.5469 436.9844,457.5469 C436.7656,457.5469 436.5625,457.625 436.375,457.8125 C435.9219,458.2969 435.9219,458.2969 435.7344,458.3906 C435.3125,458.6563 434.625,458.7813 433.8594,458.7813 C431.8125,458.7813 430.5156,457.6875 430.5156,455.9844 L430.5156,454.8906 C430.5156,453.1094 431.7656,451.7969 433.5,451.7969 C434.0781,451.7969 434.6875,451.9531 435.1563,452.2031 C435.6406,452.4844 435.8125,452.7031 435.9063,453.1094 C435.9688,453.5156 436,453.6406 436.1406,453.7656 C436.2813,453.9063 436.5156,454.0156 436.7344,454.0156 C437,454.0156 437.2656,453.875 437.4375,453.6563 C437.5469,453.5 437.5781,453.3125 437.5781,452.8906 L437.5781,451.4688 C437.5781,451.0313 437.5625,450.9063 437.4688,450.75 C437.3125,450.4844 437.0313,450.3438 436.7344,450.3438 C436.4375,450.3438 436.2344,450.4375 436.0156,450.75 L435.8438,450.6719 Z " fill="#000000"/><text fill="#000000" font-family="sans-serif" font-size="14" lengthAdjust="spacing" textLength="57" x="447.5" y="459.8467">Storage</text><line style="stroke:#181818;stroke-width:0.5;" x1="419.5" x2="506.5" y1="471" y2="471"/><line style="stroke:#181818;stroke-width:0.5;" x1="419.5" x2="506.5" y1="479" y2="479"/></g><!--class d--><g id="elem_d"><rect codeLine="13" fill="#F1F1F1" height="48" id="d" rx="2.5" ry="2.5" style="stroke:#181818;stroke-width:0.5;" width="107" x="409.5" y="547"/><ellipse cx="424.5" cy="563" fill="#ADD1B2" rx="11" ry="11" style="stroke:#181818;stroke-width:1.0;"/><path d="M426.8438,558.6719 C425.9063,558.2344 425.3125,558.0938 424.4375,558.0938 C421.8125,558.0938 419.8125,560.1719 419.8125,562.8906 L419.8125,564.0156 C419.8125,566.5938 421.9219,568.4844 424.8125,568.4844 C426.0313,568.4844 427.1875,568.1875 427.9375,567.6406 C428.5156,567.2344 428.8438,566.7813 428.8438,566.3906 C428.8438,565.9375 428.4531,565.5469 427.9844,565.5469 C427.7656,565.5469 427.5625,565.625 427.375,565.8125 C426.9219,566.2969 426.9219,566.2969 426.7344,566.3906 C426.3125,566.6563 425.625,566.7813 424.8594,566.7813 C422.8125,566.7813 421.5156,565.6875 421.5156,563.9844 L421.5156,562.8906 C421.5156,561.1094 422.7656,559.7969 424.5,559.7969 C425.0781,559.7969 425.6875,559.9531 426.1563,560.2031 C426.6406,560.4844 426.8125,560.7031 426.9063,561.1094 C426.9688,561.5156 427,561.6406 427.1406,561.7656 C427.2813,561.9063 427.5156,562.0156 427.7344,562.0156 C428,562.0156 428.2656,561.875 428.4375,561.6563 C428.5469,561.5 428.5781,561.3125 428.5781,560.8906 L428.5781,559.4688 C428.5781,559.0313 428.5625,558.9063 428.4688,558.75 C428.3125,558.4844 428.0313,558.3438 427.7344,558.3438 C427.4375,558.3438 427.2344,558.4375 427.0156,558.75 L426.8438,558.6719 Z " fill="#000000"/><text fill="#000000" font-family="sans-serif" font-size="14" lengthAdjust="spacing" textLength="75" x="438.5" y="567.8467">Document</text><line style="stroke:#181818;stroke-width:0.5;" x1="410.5" x2="515.5" y1="579" y2="579"/><line style="stroke:#181818;stroke-width:0.5;" x1="410.5" x2="515.5" y1="587" y2="587"/></g><!--class iter--><g id="elem_iter"><rect codeLine="15" fill="#F1F1F1" height="48" id="iter" rx="2.5" ry="2.5" style="stroke:#181818;stroke-width:0.5;" width="123" x="324.5" y="331"/><ellipse cx="339.5" cy="347" fill="#B4A7E5" rx="11" ry="11" style="stroke:#181818;stroke-width:1.0;"/><path d="M340.4531,343.7813 L342.1719,343.7813 C342.5625,343.7813 342.75,343.75 342.875,343.6719 C343.1406,343.5156 343.2813,343.2344 343.2813,342.9375 C343.2813,342.6719 343.1719,342.4063 342.9375,342.2344 C342.7656,342.125 342.625,342.0938 342.1719,342.0938 L337.0313,342.0938 C336.5938,342.0938 336.4688,342.1094 336.3125,342.2031 C336.0625,342.3594 335.9063,342.6563 335.9063,342.9375 C335.9063,343.2188 336.0469,343.4688 336.2656,343.6406 C336.4219,343.75 336.6094,343.7813 337.0313,343.7813 L338.75,343.7813 L338.75,350.2969 L337.0313,350.2969 C336.5938,350.2969 336.4688,350.3125 336.3125,350.4219 C336.0625,350.5781 335.9063,350.8594 335.9063,351.1563 C335.9063,351.4063 336.0469,351.6719 336.2656,351.8281 C336.4219,351.9531 336.625,352 337.0313,352 L342.1719,352 C342.9219,352 343.2813,351.7188 343.2813,351.1563 C343.2813,350.875 343.1719,350.625 342.9375,350.4531 C342.7656,350.3281 342.625,350.2969 342.1719,350.2969 L340.4531,350.2969 L340.4531,343.7813 Z " fill="#000000"/><text fill="#000000" font-family="sans-serif" font-size="14" font-style="italic" lengthAdjust="spacing" textLength="91" x="353.5" y="351.8467">TermIterator</text><line style="stroke:#181818;stroke-width:0.5;" x1="325.5" x2="446.5" y1="363" y2="363"/><line style="stroke:#181818;stroke-width:0.5;" x1="325.5" x2="446.5" y1="371" y2="371"/></g><!--class repl--><g id="elem_repl"><rect codeLine="17" fill="#F1F1F1" height="48" id="repl" rx="2.5" ry="2.5" style="stroke:#181818;stroke-width:0.5;" width="114" x="483" y="331"/><ellipse cx="498" cy="347" fill="#ADD1B2" rx="11" ry="11" style="stroke:#181818;stroke-width:1.0;"/><path d="M500.3438,342.6719 C499.4063,342.2344 498.8125,342.0938 497.9375,342.0938 C495.3125,342.0938 493.3125,344.1719 493.3125,346.8906 L493.3125,348.0156 C493.3125,350.5938 495.4219,352.4844 498.3125,352.4844 C499.5313,352.4844 500.6875,352.1875 501.4375,351.6406 C502.0156,351.2344 502.3438,350.7813 502.3438,350.3906 C502.3438,349.9375 501.9531,349.5469 501.4844,349.5469 C501.2656,349.5469 501.0625,349.625 500.875,349.8125 C500.4219,350.2969 500.4219,350.2969 500.2344,350.3906 C499.8125,350.6563 499.125,350.7813 498.3594,350.7813 C496.3125,350.7813 495.0156,349.6875 495.0156,347.9844 L495.0156,346.8906 C495.0156,345.1094 496.2656,343.7969 498,343.7969 C498.5781,343.7969 499.1875,343.9531 499.6563,344.2031 C500.1406,344.4844 500.3125,344.7031 500.4063,345.1094 C500.4688,345.5156 500.5,345.6406 500.6406,345.7656 C500.7813,345.9063 501.0156,346.0156 501.2344,346.0156 C501.5,346.0156 501.7656,345.875 501.9375,345.6563 C502.0469,345.5 502.0781,345.3125 502.0781,344.8906 L502.0781,343.4688 C502.0781,343.0313 502.0625,342.9063 501.9688,342.75 C501.8125,342.4844 501.5313,342.3438 501.2344,342.3438 C500.9375,342.3438 500.7344,342.4375 500.5156,342.75 L500.3438,342.6719 Z " fill="#000000"/><text fill="#000000" font-family="sans-serif" font-size="14" lengthAdjust="spacing" textLength="82" x="512" y="351.8467">Replication</text><line style="stroke:#181818;stroke-width:0.5;" x1="484" x2="596" y1="363" y2="363"/><line style="stroke:#181818;stroke-width:0.5;" x1="484" x2="596" y1="371" y2="371"/></g><!--reverse link Server to rp--><g id="link_Server_rp"><path codeLine="19" d="M177.287,62.382 C152.712,79.081 122.71,99.466 100.0526,114.862 " fill="none" id="Server-backto-rp" style="stroke:#181818;stroke-width:1.0;"/><polygon fill="#181818" points="188.15,55,180.9392,55.064,178.2248,61.7447,185.4356,61.6807,188.15,55" style="stroke:#181818;stroke-width:1.0;"/></g><!--reverse link Server to qp--><g id="link_Server_qp"><path codeLine="20" d="M222,68.338 C222,83.681 222,101.098 222,114.678 " fill="none" id="Server-backto-qp" style="stroke:#181818;stroke-width:1.0;"/><polygon fill="#181818" points="222,55,218,61,222,67,226,61,222,55" style="stroke:#181818;stroke-width:1.0;"/></g><!--reverse link Server to se--><g id="link_Server_se"><path codeLine="21" d="M268.657,62.157 C294.557,78.897 326.274,99.397 350.201,114.862 " fill="none" id="Server-backto-se" style="stroke:#181818;stroke-width:1.0;"/><polygon fill="#181818" points="257.586,55,260.4544,61.6161,267.6647,61.513,264.7964,54.8969,257.586,55" style="stroke:#181818;stroke-width:1.0;"/></g><!--reverse link se to i--><g id="link_se_i"><path codeLine="22" d="M386,176.338 C386,191.681 386,209.098 386,222.678 " fill="none" id="se-backto-i" style="stroke:#181818;stroke-width:1.0;"/><polygon fill="none" points="386,163,382,169,386,175,390,169,386,163" style="stroke:#181818;stroke-width:1.0;"/></g><!--link i to iter--><g id="link_i_iter"><path codeLine="23" d="M386,271 C386,288.658 386,312.941 386,330.678 " fill="none" id="i-iter" style="stroke:#181818;stroke-width:1.0;"/></g><!--link iter to s--><g id="link_iter_s"><path codeLine="24" d="M402.708,379 C414.533,395.279 430.447,417.187 442.956,434.408 " fill="none" id="iter-to-s" style="stroke:#181818;stroke-width:1.0;stroke-dasharray:7.0,7.0;"/><polygon fill="#181818" points="446.059,438.678,444.0063,429.0454,443.1206,434.6325,437.5335,433.7469,446.059,438.678" style="stroke:#181818;stroke-width:1.0;"/></g><!--reverse link s to d--><g id="link_s_d"><path codeLine="25" d="M463,500.3383 C463,515.6813 463,533.098 463,546.6784 " fill="none" id="s-backto-d" style="stroke:#181818;stroke-width:1.0;"/><polygon fill="none" points="463,487,459,493,463,499,467,493,463,487" style="stroke:#181818;stroke-width:1.0;"/></g><!--link repl to s--><g id="link_repl_s"><path codeLine="26" d="M523.292,379 C511.467,395.279 495.553,417.187 483.044,434.408 " fill="none" id="repl-to-s" style="stroke:#181818;stroke-width:1.0;"/><polygon fill="#181818" points="479.941,438.678,488.4665,433.7469,482.8794,434.6325,481.9937,429.0454,479.941,438.678" style="stroke:#181818;stroke-width:1.0;"/></g><!--SRC=[LOyn3eCm34Ltdy9Yh0H7w5G6Dbfw0IkuD184S4BLthvEg80kIVv_yTUtwSbxR5XUB00cgUnMDZNM99ubG_8equQk2yi7fvtDEskOn3onT9rrdA3d3LQkvNSoxJuGHg7kztLpBwDP1dOXsIs0TO7bGOOnkxCCbIhImJKh76lpr5j3mOvkhQqQODqDJtaUzpYe-KzfLSyuwik2nNZ5w7XWKPorda-mXPYgNAql]--></g></svg>