<?xml version="1.0" encoding="us-ascii" standalone="no"?><svg xmlns="http://www.w3.org/2000/svg" xmlns:xlink="http://www.w3.org/1999/xlink" contentStyleType="text/css" height="259px" preserveAspectRatio="none" style="width:305px;height:259px;background:#FFFFFF;" version="1.1" viewBox="0 0 305 259" width="305px" zoomAndPan="magnify"><defs/><g><g id="elem_AND"><rect fill="#F1F1F1" height="36.2969" style="stroke:#181818;stroke-width:0.5;" width="45" x="94" y="7"/><text fill="#000000" font-family="sans-serif" font-size="14" lengthAdjust="spacing" textLength="31" x="101" y="21.9951">AND</text><line style="stroke:#181818;stroke-width:0.5;" x1="95" x2="138" y1="27.2969" y2="27.2969"/></g><g id="elem_hello"><rect fill="#F1F1F1" height="44.5938" style="stroke:#181818;stroke-width:0.5;" width="111" x="7" y="103"/><text fill="#000000" font-family="sans-serif" font-size="14" lengthAdjust="spacing" textLength="35" x="45" y="117.9951">word</text><line style="stroke:#181818;stroke-width:0.5;" x1="8" x2="117" y1="123.2969" y2="123.2969"/><text fill="#000000" font-family="sans-serif" font-size="14" lengthAdjust="spacing" textLength="99" x="13" y="140.292">text = "hello"</text></g><g id="elem_OR"><rect fill="#F1F1F1" height="36.2969" style="stroke:#181818;stroke-width:0.5;" width="35" x="153" y="107.5"/><text fill="#000000" font-family="sans-serif" font-size="14" lengthAdjust="spacing" textLength="21" x="160" y="122.4951">OR</text><line style="stroke:#181818;stroke-width:0.5;" x1="154" x2="187" y1="127.7969" y2="127.7969"/></g><g id="elem_spider"><rect fill="#F1F1F1" height="44.5938" style="stroke:#181818;stroke-width:0.5;" width="121" x="35" y="208"/><text fill="#000000" font-family="sans-serif" font-size="14" lengthAdjust="spacing" textLength="35" x="78" y="222.9951">word</text><line style="stroke:#181818;stroke-width:0.5;" x1="36" x2="155" y1="228.2969" y2="228.2969"/><text fill="#000000" font-family="sans-serif" font-size="14" lengthAdjust="spacing" textLength="109" x="41" y="245.292">text = "spider"</text></g><g id="elem_man"><rect fill="#F1F1F1" height="44.5938" style="stroke:#181818;stroke-width:0.5;" width="107" x="191" y="208"/><text fill="#000000" font-family="sans-serif" font-size="14" lengthAdjust="spacing" textLength="35" x="227" y="222.9951">word</text><line style="stroke:#181818;stroke-width:0.5;" x1="192" x2="297" y1="228.2969" y2="228.2969"/><text fill="#000000" font-family="sans-serif" font-size="14" lengthAdjust="spacing" textLength="95" x="197" y="245.292">text = "man"</text></g><!--link AND to hello--><g id="link_AND_hello"><path codeLine="10" d="M107.094,43.157 C98.8077,58.272 86.6057,80.529 77.0592,97.943 " fill="none" id="AND-to-hello" style="stroke:#181818;stroke-width:1.0;"/><polygon fill="#181818" points="74.4425,102.716,82.2772,96.7479,76.8466,98.3319,75.2626,92.9013,74.4425,102.716" style="stroke:#181818;stroke-width:1.0;"/></g><!--link AND to OR--><g id="link_AND_OR"><path codeLine="11" d="M125.906,43.157 C134.987,59.722 148.772,84.867 158.61,102.811 " fill="none" id="AND-to-OR" style="stroke:#181818;stroke-width:1.0;"/><polygon fill="#181818" points="161.021,107.209,160.2008,97.3944,158.6168,102.8249,153.1863,101.241,161.021,107.209" style="stroke:#181818;stroke-width:1.0;"/></g><!--link OR to spider--><g id="link_OR_spider"><path codeLine="12" d="M158.115,143.508 C146.202,159.8696 128.029,184.8265 114.325,203.6472 " fill="none" id="OR-to-spider" style="stroke:#181818;stroke-width:1.0;"/><polygon fill="#181818" points="111.297,207.8058,119.8279,202.884,114.2398,203.7636,113.3603,198.1755,111.297,207.8058" style="stroke:#181818;stroke-width:1.0;"/></g><!--link OR to man--><g id="link_OR_man"><path codeLine="13" d="M182.72,143.508 C194.474,159.8696 212.405,184.8265 225.926,203.6472 " fill="none" id="OR-to-man" style="stroke:#181818;stroke-width:1.0;"/><polygon fill="#181818" points="228.914,207.8058,226.912,198.1626,225.997,203.7449,220.4146,202.8298,228.914,207.8058" style="stroke:#181818;stroke-width:1.0;"/></g><!--SRC=[oq_AIaqkKN3qS-7AXp2LolEBKfGK4eiLCb9pSlAvmAI2bK99QaM9Wgs24fYl15Fj7uIfhxWWCoMrY0j28Uc422XXQiXDpEC2OYIbG9uI5nVGLGgwkdPGXy1uG2lzWy0ig4LG7b0F0000]--></g></svg>