<?xml version="1.0" encoding="us-ascii" standalone="no"?><svg xmlns="http://www.w3.org/2000/svg" xmlns:xlink="http://www.w3.org/1999/xlink" contentStyleType="text/css" height="282px" preserveAspectRatio="none" style="width:1175px;height:282px;background:#FFFFFF;" version="1.1" viewBox="0 0 1175 282" width="1175px" zoomAndPan="magnify"><defs/><g><!--cluster shard1--><g id="cluster_shard1"><rect fill="none" height="234" rx="2.5" ry="2.5" style="stroke:#181818;stroke-width:1.0;" width="382" x="7" y="42.0986"/><path d="M119,42.0986 L119,51.3955 L109,61.3955 L7,61.3955 " fill="none" style="stroke:#181818;stroke-width:1.0;"/><text fill="#000000" font-family="sans-serif" font-size="14" font-weight="bold" lengthAdjust="spacing" textLength="102" x="10" y="56.0938">slots 0-5461</text></g><!--cluster shard2--><g id="cluster_shard2"><rect fill="none" height="234" rx="2.5" ry="2.5" style="stroke:#181818;stroke-width:1.0;" width="382" x="397" y="42.0986"/><path d="M549,42.0986 L549,51.3955 L539,61.3955 L397,61.3955 " fill="none" style="stroke:#181818;stroke-width:1.0;"/><text fill="#000000" font-family="sans-serif" font-size="14" font-weight="bold" lengthAdjust="spacing" textLength="142" x="400" y="56.0938">slots 5462-10922</text></g><!--cluster shard3--><g id="cluster_shard3"><rect fill="none" height="234" rx="2.5" ry="2.5" style="stroke:#181818;stroke-width:1.0;" width="382" x="787" y="42.0986"/><path d="M949,42.0986 L949,51.3955 L939,61.3955 L787,61.3955 " fill="none" style="stroke:#181818;stroke-width:1.0;"/><text fill="#000000" font-family="sans-serif" font-size="14" font-weight="bold" lengthAdjust="spacing" textLength="152" x="790" y="56.0938">slots 10923-16383</text></g><!--entity s1m--><g id="elem_s1m"><polygon fill="#F1F1F1" points="23.5,118.0986,33.5,108.0986,112.5,108.0986,112.5,144.3955,102.5,154.3955,23.5,154.3955,23.5,118.0986" style="stroke:#181818;stroke-width:0.5;"/><line style="stroke:#181818;stroke-width:0.5;" x1="102.5" x2="112.5" y1="118.0986" y2="108.0986"/><line style="stroke:#181818;stroke-width:0.5;" x1="23.5" x2="102.5" y1="118.0986" y2="118.0986"/><line style="stroke:#181818;stroke-width:0.5;" x1="102.5" x2="102.5" y1="118.0986" y2="154.3955"/><text fill="#000000" font-family="sans-serif" font-size="14" lengthAdjust="spacing" textLength="49" x="38.5" y="141.0938">Master</text></g><!--entity s1r1--><g id="elem_s1r1"><polygon fill="#F1F1F1" points="23.5,224.0986,33.5,214.0986,116.5,214.0986,116.5,250.3955,106.5,260.3955,23.5,260.3955,23.5,224.0986" style="stroke:#181818;stroke-width:0.5;"/><line style="stroke:#181818;stroke-width:0.5;" x1="106.5" x2="116.5" y1="224.0986" y2="214.0986"/><line style="stroke:#181818;stroke-width:0.5;" x1="23.5" x2="106.5" y1="224.0986" y2="224.0986"/><line style="stroke:#181818;stroke-width:0.5;" x1="106.5" x2="106.5" y1="224.0986" y2="260.3955"/><text fill="#000000" font-family="sans-serif" font-size="14" lengthAdjust="spacing" textLength="53" x="38.5" y="247.0938">Replica</text></g><!--entity s1r2--><g id="elem_s1r2"><polygon fill="#F1F1F1" points="151.5,224.0986,161.5,214.0986,244.5,214.0986,244.5,250.3955,234.5,260.3955,151.5,260.3955,151.5,224.0986" style="stroke:#181818;stroke-width:0.5;"/><line style="stroke:#181818;stroke-width:0.5;" x1="234.5" x2="244.5" y1="224.0986" y2="214.0986"/><line style="stroke:#181818;stroke-width:0.5;" x1="151.5" x2="234.5" y1="224.0986" y2="224.0986"/><line style="stroke:#181818;stroke-width:0.5;" x1="234.5" x2="234.5" y1="224.0986" y2="260.3955"/><text fill="#000000" font-family="sans-serif" font-size="14" lengthAdjust="spacing" textLength="53" x="166.5" y="247.0938">Replica</text></g><!--entity s1r3--><g id="elem_s1r3"><polygon fill="#F1F1F1" points="279.5,224.0986,289.5,214.0986,372.5,214.0986,372.5,250.3955,362.5,260.3955,279.5,260.3955,279.5,224.0986" style="stroke:#181818;stroke-width:0.5;"/><line style="stroke:#181818;stroke-width:0.5;" x1="362.5" x2="372.5" y1="224.0986" y2="214.0986"/><line style="stroke:#181818;stroke-width:0.5;" x1="279.5" x2="362.5" y1="224.0986" y2="224.0986"/><line style="stroke:#181818;stroke-width:0.5;" x1="362.5" x2="362.5" y1="224.0986" y2="260.3955"/><text fill="#000000" font-family="sans-serif" font-size="14" lengthAdjust="spacing" textLength="53" x="294.5" y="247.0938">Replica</text></g><text fill="#000000" font-family="sans-serif" font-size="14" lengthAdjust="spacing" textLength="37" x="142.5" y="20.7969">write</text><rect fill="#F1F1F1" height="12" style="stroke:#181818;stroke-width:1.5;" width="12" x="155" y="36.0986"/><text fill="#000000" font-family="sans-serif" font-size="14" lengthAdjust="spacing" textLength="32" x="286" y="20.7969">read</text><rect fill="#F1F1F1" height="12" style="stroke:#181818;stroke-width:1.5;" width="12" x="296" y="36.0986"/><!--entity s2m--><g id="elem_s2m"><polygon fill="#F1F1F1" points="606.5,118.0986,616.5,108.0986,695.5,108.0986,695.5,144.3955,685.5,154.3955,606.5,154.3955,606.5,118.0986" style="stroke:#181818;stroke-width:0.5;"/><line style="stroke:#181818;stroke-width:0.5;" x1="685.5" x2="695.5" y1="118.0986" y2="108.0986"/><line style="stroke:#181818;stroke-width:0.5;" x1="606.5" x2="685.5" y1="118.0986" y2="118.0986"/><line style="stroke:#181818;stroke-width:0.5;" x1="685.5" x2="685.5" y1="118.0986" y2="154.3955"/><text fill="#000000" font-family="sans-serif" font-size="14" lengthAdjust="spacing" textLength="49" x="621.5" y="141.0938">Master</text></g><!--entity s2r1--><g id="elem_s2r1"><polygon fill="#F1F1F1" points="413.5,224.0986,423.5,214.0986,506.5,214.0986,506.5,250.3955,496.5,260.3955,413.5,260.3955,413.5,224.0986" style="stroke:#181818;stroke-width:0.5;"/><line style="stroke:#181818;stroke-width:0.5;" x1="496.5" x2="506.5" y1="224.0986" y2="214.0986"/><line style="stroke:#181818;stroke-width:0.5;" x1="413.5" x2="496.5" y1="224.0986" y2="224.0986"/><line style="stroke:#181818;stroke-width:0.5;" x1="496.5" x2="496.5" y1="224.0986" y2="260.3955"/><text fill="#000000" font-family="sans-serif" font-size="14" lengthAdjust="spacing" textLength="53" x="428.5" y="247.0938">Replica</text></g><!--entity s2r2--><g id="elem_s2r2"><polygon fill="#F1F1F1" points="541.5,224.0986,551.5,214.0986,634.5,214.0986,634.5,250.3955,624.5,260.3955,541.5,260.3955,541.5,224.0986" style="stroke:#181818;stroke-width:0.5;"/><line style="stroke:#181818;stroke-width:0.5;" x1="624.5" x2="634.5" y1="224.0986" y2="214.0986"/><line style="stroke:#181818;stroke-width:0.5;" x1="541.5" x2="624.5" y1="224.0986" y2="224.0986"/><line style="stroke:#181818;stroke-width:0.5;" x1="624.5" x2="624.5" y1="224.0986" y2="260.3955"/><text fill="#000000" font-family="sans-serif" font-size="14" lengthAdjust="spacing" textLength="53" x="556.5" y="247.0938">Replica</text></g><!--entity s2r3--><g id="elem_s2r3"><polygon fill="#F1F1F1" points="669.5,224.0986,679.5,214.0986,762.5,214.0986,762.5,250.3955,752.5,260.3955,669.5,260.3955,669.5,224.0986" style="stroke:#181818;stroke-width:0.5;"/><line style="stroke:#181818;stroke-width:0.5;" x1="752.5" x2="762.5" y1="224.0986" y2="214.0986"/><line style="stroke:#181818;stroke-width:0.5;" x1="669.5" x2="752.5" y1="224.0986" y2="224.0986"/><line style="stroke:#181818;stroke-width:0.5;" x1="752.5" x2="752.5" y1="224.0986" y2="260.3955"/><text fill="#000000" font-family="sans-serif" font-size="14" lengthAdjust="spacing" textLength="53" x="684.5" y="247.0938">Replica</text></g><text fill="#000000" font-family="sans-serif" font-size="14" lengthAdjust="spacing" textLength="37" x="552.5" y="20.7969">write</text><rect fill="#F1F1F1" height="12" style="stroke:#181818;stroke-width:1.5;" width="12" x="565" y="36.0986"/><!--entity s3m--><g id="elem_s3m"><polygon fill="#F1F1F1" points="1006.5,118.0986,1016.5,108.0986,1095.5,108.0986,1095.5,144.3955,1085.5,154.3955,1006.5,154.3955,1006.5,118.0986" style="stroke:#181818;stroke-width:0.5;"/><line style="stroke:#181818;stroke-width:0.5;" x1="1085.5" x2="1095.5" y1="118.0986" y2="108.0986"/><line style="stroke:#181818;stroke-width:0.5;" x1="1006.5" x2="1085.5" y1="118.0986" y2="118.0986"/><line style="stroke:#181818;stroke-width:0.5;" x1="1085.5" x2="1085.5" y1="118.0986" y2="154.3955"/><text fill="#000000" font-family="sans-serif" font-size="14" lengthAdjust="spacing" textLength="49" x="1021.5" y="141.0938">Master</text></g><!--entity s3r1--><g id="elem_s3r1"><polygon fill="#F1F1F1" points="803.5,224.0986,813.5,214.0986,896.5,214.0986,896.5,250.3955,886.5,260.3955,803.5,260.3955,803.5,224.0986" style="stroke:#181818;stroke-width:0.5;"/><line style="stroke:#181818;stroke-width:0.5;" x1="886.5" x2="896.5" y1="224.0986" y2="214.0986"/><line style="stroke:#181818;stroke-width:0.5;" x1="803.5" x2="886.5" y1="224.0986" y2="224.0986"/><line style="stroke:#181818;stroke-width:0.5;" x1="886.5" x2="886.5" y1="224.0986" y2="260.3955"/><text fill="#000000" font-family="sans-serif" font-size="14" lengthAdjust="spacing" textLength="53" x="818.5" y="247.0938">Replica</text></g><!--entity s3r2--><g id="elem_s3r2"><polygon fill="#F1F1F1" points="931.5,224.0986,941.5,214.0986,1024.5,214.0986,1024.5,250.3955,1014.5,260.3955,931.5,260.3955,931.5,224.0986" style="stroke:#181818;stroke-width:0.5;"/><line style="stroke:#181818;stroke-width:0.5;" x1="1014.5" x2="1024.5" y1="224.0986" y2="214.0986"/><line style="stroke:#181818;stroke-width:0.5;" x1="931.5" x2="1014.5" y1="224.0986" y2="224.0986"/><line style="stroke:#181818;stroke-width:0.5;" x1="1014.5" x2="1014.5" y1="224.0986" y2="260.3955"/><text fill="#000000" font-family="sans-serif" font-size="14" lengthAdjust="spacing" textLength="53" x="946.5" y="247.0938">Replica</text></g><!--entity s3r3--><g id="elem_s3r3"><polygon fill="#F1F1F1" points="1059.5,224.0986,1069.5,214.0986,1152.5,214.0986,1152.5,250.3955,1142.5,260.3955,1059.5,260.3955,1059.5,224.0986" style="stroke:#181818;stroke-width:0.5;"/><line style="stroke:#181818;stroke-width:0.5;" x1="1142.5" x2="1152.5" y1="224.0986" y2="214.0986"/><line style="stroke:#181818;stroke-width:0.5;" x1="1059.5" x2="1142.5" y1="224.0986" y2="224.0986"/><line style="stroke:#181818;stroke-width:0.5;" x1="1142.5" x2="1142.5" y1="224.0986" y2="260.3955"/><text fill="#000000" font-family="sans-serif" font-size="14" lengthAdjust="spacing" textLength="53" x="1074.5" y="247.0938">Replica</text></g><text fill="#000000" font-family="sans-serif" font-size="14" lengthAdjust="spacing" textLength="37" x="950.5" y="20.7969">write</text><rect fill="#F1F1F1" height="12" style="stroke:#181818;stroke-width:1.5;" width="12" x="963" y="36.0986"/><!--link w1 to s1m--><g id="link_w1_s1m"><path d="M155.461,48.2806 C143.902,59.0936 116.537,84.6936 95.4695,104.4016 " fill="none" id="w1-to-s1m" style="stroke:#181818;stroke-width:1.0;"/><polygon fill="#181818" points="91.6144,108.0076,100.9195,104.7803,95.2658,104.5918,95.4542,98.9381,91.6144,108.0076" style="stroke:#181818;stroke-width:1.0;"/></g><!--link s1m to s1r1--><g id="link_s1m_s1r1"><path d="M68.4241,154.1546 C68.7317,170.1486 69.1496,191.8771 69.4777,208.9404 " fill="none" id="s1m-to-s1r1" style="stroke:#181818;stroke-width:1.0;"/><polygon fill="#181818" points="69.5765,214.0747,73.4024,204.9994,69.4802,209.0757,65.4039,205.1534,69.5765,214.0747" style="stroke:#181818;stroke-width:1.0;"/></g><!--link s1m to s1r2--><g id="link_s1m_s1r2"><path d="M95.5697,154.1546 C116.338,170.7696 144.841,193.5715 166.507,210.9046 " fill="none" id="s1m-to-s1r2" style="stroke:#181818;stroke-width:1.0;"/><polygon fill="#181818" points="170.47,214.0747,165.942,205.3285,166.566,210.9508,160.9437,211.5748,170.47,214.0747" style="stroke:#181818;stroke-width:1.0;"/></g><!--link s1m to s1r3--><g id="link_s1m_s1r3"><path d="M112.646,150.0956 C157.683,168.2496 227.149,196.2519 274.492,215.3356 " fill="none" id="s1m-to-s1r3" style="stroke:#181818;stroke-width:1.0;"/><polygon fill="#181818" points="279.289,217.2695,272.4362,210.1957,274.6513,215.4008,269.4462,217.616,279.289,217.2695" style="stroke:#181818;stroke-width:1.0;"/></g><!--link r1 to s1r1--><g id="link_r1_s1r1"><path d="M302.775,48.4676 C304.978,65.9136 309.517,121.7346 283,154.0986 C277.585,160.7076 182.75,195.644 121.465,217.7297 " fill="none" id="r1-to-s1r1" style="stroke:#181818;stroke-width:1.0;stroke-dasharray:7.0,7.0;"/><polygon fill="#181818" points="116.746,219.4289,126.569,220.1426,121.4502,217.7347,123.8582,212.6159,116.746,219.4289" style="stroke:#181818;stroke-width:1.0;"/></g><!--link r1 to s1r2--><g id="link_r1_s1r2"><path d="M304.165,48.1046 C310.878,64.4376 329.794,117.2386 311,154.0986 C297.891,179.8086 272.533,199.3414 249.155,212.881 " fill="none" id="r1-to-s1r2" style="stroke:#181818;stroke-width:1.0;stroke-dasharray:7.0,7.0;"/><polygon fill="#181818" points="244.51,215.5091,254.3128,214.5576,248.8615,213.0465,250.3725,207.5952,244.51,215.5091" style="stroke:#181818;stroke-width:1.0;"/></g><!--link r1 to s1r3--><g id="link_r1_s1r3"><path d="M308.327,48.2556 C318.962,57.3826 340.039,77.5566 348,100.0986 C360.876,136.5546 348.719,181.1966 338.009,209.1509 " fill="none" id="r1-to-s1r3" style="stroke:#181818;stroke-width:1.0;stroke-dasharray:7.0,7.0;"/><polygon fill="#181818" points="336.17,213.8301,343.1855,206.9176,337.9993,209.1768,335.7401,203.9907,336.17,213.8301" style="stroke:#181818;stroke-width:1.0;"/></g><!--link w2 to s2m--><g id="link_w2_s2m"><path d="M575.765,48.2806 C585.667,59.0486 609.053,84.4816 627.144,104.1556 " fill="none" id="w2-to-s2m" style="stroke:#181818;stroke-width:1.0;"/><polygon fill="#181818" points="630.687,108.0076,627.539,98.6754,627.3024,104.3273,621.6505,104.0907,630.687,108.0076" style="stroke:#181818;stroke-width:1.0;"/></g><!--link s2m to s2r1--><g id="link_s2m_s2r1"><path d="M610.494,154.1546 C579.6,170.9766 537.058,194.1401 505.086,211.5493 " fill="none" id="s2m-to-s2r1" style="stroke:#181818;stroke-width:1.0;"/><polygon fill="#181818" points="500.448,214.0747,510.265,213.2832,504.8391,211.6834,506.4389,206.2575,500.448,214.0747" style="stroke:#181818;stroke-width:1.0;"/></g><!--link s2m to s2r2--><g id="link_s2m_s2r2"><path d="M637.639,154.1546 C627.867,170.2866 614.561,192.2521 604.185,209.3807 " fill="none" id="s2m-to-s2r2" style="stroke:#181818;stroke-width:1.0;"/><polygon fill="#181818" points="601.341,214.0747,609.4249,208.4489,603.9313,209.798,602.5822,204.3044,601.341,214.0747" style="stroke:#181818;stroke-width:1.0;"/></g><!--link s2m to s2r3--><g id="link_s2m_s2r3"><path d="M664.785,154.1546 C674.954,170.4246 688.831,192.628 699.575,209.8188 " fill="none" id="s2m-to-s2r3" style="stroke:#181818;stroke-width:1.0;"/><polygon fill="#181818" points="702.235,214.0747,700.8568,204.3228,699.5849,209.8348,694.0729,208.5629,702.235,214.0747" style="stroke:#181818;stroke-width:1.0;"/></g><!--link w3 to s3m--><g id="link_w3_s3m"><path d="M973.884,48.2806 C984.034,59.0486 1008,84.4816 1026.55,104.1556 " fill="none" id="w3-to-s3m" style="stroke:#181818;stroke-width:1.0;"/><polygon fill="#181818" points="1030.18,108.0076,1026.9044,98.7195,1026.7453,104.3741,1021.0907,104.215,1030.18,108.0076" style="stroke:#181818;stroke-width:1.0;"/></g><!--link s3m to s3r1--><g id="link_s3m_s3r1"><path d="M1008.37,154.1546 C975.728,171.0456 930.726,194.3301 897.033,211.7631 " fill="none" id="s3m-to-s3r1" style="stroke:#181818;stroke-width:1.0;"/><polygon fill="#181818" points="892.565,214.0747,902.3966,213.4925,897.006,211.7775,898.7211,206.3869,892.565,214.0747" style="stroke:#181818;stroke-width:1.0;"/></g><!--link s3m to s3r2--><g id="link_s3m_s3r2"><path d="M1035.52,154.1546 C1024.1,170.4246 1008.51,192.628 996.446,209.8188 " fill="none" id="s3m-to-s3r2" style="stroke:#181818;stroke-width:1.0;"/><polygon fill="#181818" points="993.459,214.0747,1001.9034,209.006,996.3314,209.9821,995.3552,204.4101,993.459,214.0747" style="stroke:#181818;stroke-width:1.0;"/></g><!--link s3m to s3r3--><g id="link_s3m_s3r3"><path d="M1062.66,154.1546 C1071.2,170.2866 1082.81,192.2521 1091.87,209.3807 " fill="none" id="s3m-to-s3r3" style="stroke:#181818;stroke-width:1.0;"/><polygon fill="#181818" points="1094.35,214.0747,1093.6731,204.2492,1092.0101,209.656,1086.6032,207.993,1094.35,214.0747" style="stroke:#181818;stroke-width:1.0;"/></g><!--SRC=[TPB1ReCm38RlUGgh5qv4ZRrLcpJj3NRP6sGbNP4QWf98Q9hsxWj949JDdF3lOFDzq83pS7PsT8CP8lH3Y4Ptu2vmyTeQiFhhmqWfHIaFuUPYW6Fx-71I1z01mbNxJi6tW7GDhZFmfjCCdtlAhl6x6M_zMPVSAww1N8D4xepEHvXy7ysSJsNEfA1jN_E-NAUR6jH5cm3tmNQmd-7JtFgOLo3bPinQuwucyIFk7IL3sAhZC-Bg2HbFo7X2pXDodf3nL8vFMA1nyOJLmh9e4-0- -8iuqr6hJlH4AoCnZCGm4iT872CnZ5GOgRmmBOnK2PP5cm3tGMPiyj_n8gNlFwynV-0ahCakxbAo_vqb-mi0]--></g></svg>