<?xml version="1.0" encoding="us-ascii" standalone="no"?><svg xmlns="http://www.w3.org/2000/svg" xmlns:xlink="http://www.w3.org/1999/xlink" contentStyleType="text/css" height="364px" preserveAspectRatio="none" style="width:332px;height:364px;background:#FFFFFF;" version="1.1" viewBox="0 0 332 364" width="332px" zoomAndPan="magnify"><defs/><g><g id="elem_hello"><rect fill="#F1F1F1" height="44.5938" style="stroke:#181818;stroke-width:0.5;" width="106" x="7" y="208"/><text fill="#000000" font-family="sans-serif" font-size="14" lengthAdjust="spacing" textLength="92" x="14" y="222.9951">ReadIterator</text><line style="stroke:#181818;stroke-width:0.5;" x1="8" x2="112" y1="228.2969" y2="228.2969"/><text fill="#000000" font-family="sans-serif" font-size="14" lengthAdjust="spacing" textLength="35" x="13" y="245.292">hello</text></g><g id="elem_world"><rect fill="#F1F1F1" height="44.5938" style="stroke:#181818;stroke-width:0.5;" width="106" x="79" y="313"/><text fill="#000000" font-family="sans-serif" font-size="14" lengthAdjust="spacing" textLength="92" x="86" y="327.9951">ReadIterator</text><line style="stroke:#181818;stroke-width:0.5;" x1="80" x2="184" y1="333.2969" y2="333.2969"/><text fill="#000000" font-family="sans-serif" font-size="14" lengthAdjust="spacing" textLength="39" x="85" y="350.292">world</text></g><g id="elem_sunshine"><rect fill="#F1F1F1" height="44.5938" style="stroke:#181818;stroke-width:0.5;" width="106" x="220" y="313"/><text fill="#000000" font-family="sans-serif" font-size="14" lengthAdjust="spacing" textLength="92" x="227" y="327.9951">ReadIterator</text><line style="stroke:#181818;stroke-width:0.5;" x1="221" x2="325" y1="333.2969" y2="333.2969"/><text fill="#000000" font-family="sans-serif" font-size="14" lengthAdjust="spacing" textLength="62" x="226" y="350.292">sunshine</text></g><g id="elem_union"><rect fill="#F1F1F1" height="36.2969" style="stroke:#181818;stroke-width:0.5;" width="110" x="148" y="212.5"/><text fill="#000000" font-family="sans-serif" font-size="14" lengthAdjust="spacing" textLength="96" x="155" y="227.4951">UnionIterator</text><line style="stroke:#181818;stroke-width:0.5;" x1="149" x2="257" y1="232.7969" y2="232.7969"/></g><g id="elem_intersect"><rect fill="#F1F1F1" height="36.2969" style="stroke:#181818;stroke-width:0.5;" width="136" x="63" y="112"/><text fill="#000000" font-family="sans-serif" font-size="14" lengthAdjust="spacing" textLength="122" x="70" y="126.9951">IntersectIterator</text><line style="stroke:#181818;stroke-width:0.5;" x1="64" x2="198" y1="132.2969" y2="132.2969"/></g><g id="elem_topn"><rect fill="#F1F1F1" height="44.5938" style="stroke:#181818;stroke-width:0.5;" width="108" x="77" y="7"/><text fill="#000000" font-family="sans-serif" font-size="14" lengthAdjust="spacing" textLength="94" x="84" y="21.9951">TopNIterator</text><line style="stroke:#181818;stroke-width:0.5;" x1="78" x2="184" y1="27.2969" y2="27.2969"/><text fill="#000000" font-family="sans-serif" font-size="14" lengthAdjust="spacing" textLength="18" x="83" y="44.292">10</text></g><!--link union to world--><g id="link_union_world"><path codeLine="21" d="M191.276,248.508 C179.998,264.8696 162.794,289.8265 149.821,308.6472 " fill="none" id="union-to-world" style="stroke:#181818;stroke-width:1.0;"/><polygon fill="#181818" points="146.954,312.8058,155.3551,307.6657,149.7916,308.689,148.7683,303.1255,146.954,312.8058" style="stroke:#181818;stroke-width:1.0;"/></g><!--link union to sunshine--><g id="link_union_sunshine"><path codeLine="22" d="M214.559,248.508 C225.678,264.8696 242.639,289.8265 255.43,308.6472 " fill="none" id="union-to-sunshine" style="stroke:#181818;stroke-width:1.0;"/><polygon fill="#181818" points="258.256,312.8058,256.5057,303.1137,255.4456,308.6704,249.889,307.6103,258.256,312.8058" style="stroke:#181818;stroke-width:1.0;"/></g><!--link intersect to union--><g id="link_intersect_union"><path codeLine="23" d="M143.541,148.157 C155.65,164.722 174.029,189.867 187.146,207.811 " fill="none" id="intersect-to-union" style="stroke:#181818;stroke-width:1.0;"/><polygon fill="#181818" points="190.361,212.209,188.2785,202.5828,187.4101,208.1726,181.8203,207.3042,190.361,212.209" style="stroke:#181818;stroke-width:1.0;"/></g><!--link intersect to hello--><g id="link_intersect_hello"><path codeLine="24" d="M118.633,148.157 C107.645,163.401 91.4199,185.91 78.8216,203.388 " fill="none" id="intersect-to-hello" style="stroke:#181818;stroke-width:1.0;"/><polygon fill="#181818" points="75.7021,207.716,84.2089,202.7528,78.6252,203.6595,77.7185,198.0758,75.7021,207.716" style="stroke:#181818;stroke-width:1.0;"/></g><!--link topn to intersect--><g id="link_topn_intersect"><path codeLine="25" d="M131,52.36 C131,68.451 131,90.262 131,106.502 " fill="none" id="topn-to-intersect" style="stroke:#181818;stroke-width:1.0;"/><polygon fill="#181818" points="131,111.779,135,102.779,131,106.779,127,102.779,131,111.779" style="stroke:#181818;stroke-width:1.0;"/></g><!--SRC=[oq_AIaqkKL0AIarCyIn9BKeioIzIKaWiLiX8pSd9LwZcKe2mk6gvkF9ngItFByf90Qi5i_2gBIxDAyx8p4i5AuTna7M4vcNcvw5eAGM981HuvW4bYu5C54MPC564mf3y0ZyKDINv1NbWUmqDG3Q2pLNGrRM3EXl1XxiBRYfO6E8GL358w81D1d7XaW00]--></g></svg>