<?xml version="1.0" encoding="us-ascii" standalone="no"?><svg xmlns="http://www.w3.org/2000/svg" xmlns:xlink="http://www.w3.org/1999/xlink" contentStyleType="text/css" height="186px" preserveAspectRatio="none" style="width:965px;height:186px;background:#FFFFFF;" version="1.1" viewBox="0 0 965 186" width="965px" zoomAndPan="magnify"><defs/><g><!--class iter--><g id="elem_iter"><rect codeLine="1" fill="#F1F1F1" height="64.2969" id="iter" rx="2.5" ry="2.5" style="stroke:#181818;stroke-width:0.5;" width="123" x="430.5" y="7"/><ellipse cx="445.5" cy="23" fill="#B4A7E5" rx="11" ry="11" style="stroke:#181818;stroke-width:1.0;"/><path d="M446.4531,19.7813 L448.1719,19.7813 C448.5625,19.7813 448.75,19.75 448.875,19.6719 C449.1406,19.5156 449.2813,19.2344 449.2813,18.9375 C449.2813,18.6719 449.1719,18.4063 448.9375,18.2344 C448.7656,18.125 448.625,18.0938 448.1719,18.0938 L443.0313,18.0938 C442.5938,18.0938 442.4688,18.1094 442.3125,18.2031 C442.0625,18.3594 441.9063,18.6563 441.9063,18.9375 C441.9063,19.2188 442.0469,19.4688 442.2656,19.6406 C442.4219,19.75 442.6094,19.7813 443.0313,19.7813 L444.75,19.7813 L444.75,26.2969 L443.0313,26.2969 C442.5938,26.2969 442.4688,26.3125 442.3125,26.4219 C442.0625,26.5781 441.9063,26.8594 441.9063,27.1563 C441.9063,27.4063 442.0469,27.6719 442.2656,27.8281 C442.4219,27.9531 442.625,28 443.0313,28 L448.1719,28 C448.9219,28 449.2813,27.7188 449.2813,27.1563 C449.2813,26.875 449.1719,26.625 448.9375,26.4531 C448.7656,26.3281 448.625,26.2969 448.1719,26.2969 L446.4531,26.2969 L446.4531,19.7813 Z " fill="#000000"/><text fill="#000000" font-family="sans-serif" font-size="14" font-style="italic" lengthAdjust="spacing" textLength="91" x="459.5" y="27.8467">TermIterator</text><line style="stroke:#181818;stroke-width:0.5;" x1="431.5" x2="552.5" y1="39" y2="39"/><line style="stroke:#181818;stroke-width:0.5;" x1="431.5" x2="552.5" y1="47" y2="47"/><text fill="#000000" font-family="sans-serif" font-size="14" lengthAdjust="spacing" textLength="44" x="436.5" y="63.9951">Next()</text></g><!--class ri--><g id="elem_ri"><rect codeLine="5" fill="#F1F1F1" height="48" id="ri" rx="2.5" ry="2.5" style="stroke:#181818;stroke-width:0.5;" width="124" x="7" y="131"/><ellipse cx="22" cy="147" fill="#ADD1B2" rx="11" ry="11" style="stroke:#181818;stroke-width:1.0;"/><path d="M24.3438,142.6719 C23.4063,142.2344 22.8125,142.0938 21.9375,142.0938 C19.3125,142.0938 17.3125,144.1719 17.3125,146.8906 L17.3125,148.0156 C17.3125,150.5938 19.4219,152.4844 22.3125,152.4844 C23.5313,152.4844 24.6875,152.1875 25.4375,151.6406 C26.0156,151.2344 26.3438,150.7813 26.3438,150.3906 C26.3438,149.9375 25.9531,149.5469 25.4844,149.5469 C25.2656,149.5469 25.0625,149.625 24.875,149.8125 C24.4219,150.2969 24.4219,150.2969 24.2344,150.3906 C23.8125,150.6563 23.125,150.7813 22.3594,150.7813 C20.3125,150.7813 19.0156,149.6875 19.0156,147.9844 L19.0156,146.8906 C19.0156,145.1094 20.2656,143.7969 22,143.7969 C22.5781,143.7969 23.1875,143.9531 23.6563,144.2031 C24.1406,144.4844 24.3125,144.7031 24.4063,145.1094 C24.4688,145.5156 24.5,145.6406 24.6406,145.7656 C24.7813,145.9063 25.0156,146.0156 25.2344,146.0156 C25.5,146.0156 25.7656,145.875 25.9375,145.6563 C26.0469,145.5 26.0781,145.3125 26.0781,144.8906 L26.0781,143.4688 C26.0781,143.0313 26.0625,142.9063 25.9688,142.75 C25.8125,142.4844 25.5313,142.3438 25.2344,142.3438 C24.9375,142.3438 24.7344,142.4375 24.5156,142.75 L24.3438,142.6719 Z " fill="#000000"/><text fill="#000000" font-family="sans-serif" font-size="14" lengthAdjust="spacing" textLength="92" x="36" y="151.8467">ReadIterator</text><line style="stroke:#181818;stroke-width:0.5;" x1="8" x2="130" y1="163" y2="163"/><line style="stroke:#181818;stroke-width:0.5;" x1="8" x2="130" y1="171" y2="171"/></g><!--class ui--><g id="elem_ui"><rect codeLine="6" fill="#F1F1F1" height="48" id="ui" rx="2.5" ry="2.5" style="stroke:#181818;stroke-width:0.5;" width="128" x="166" y="131"/><ellipse cx="181" cy="147" fill="#ADD1B2" rx="11" ry="11" style="stroke:#181818;stroke-width:1.0;"/><path d="M183.3438,142.6719 C182.4063,142.2344 181.8125,142.0938 180.9375,142.0938 C178.3125,142.0938 176.3125,144.1719 176.3125,146.8906 L176.3125,148.0156 C176.3125,150.5938 178.4219,152.4844 181.3125,152.4844 C182.5313,152.4844 183.6875,152.1875 184.4375,151.6406 C185.0156,151.2344 185.3438,150.7813 185.3438,150.3906 C185.3438,149.9375 184.9531,149.5469 184.4844,149.5469 C184.2656,149.5469 184.0625,149.625 183.875,149.8125 C183.4219,150.2969 183.4219,150.2969 183.2344,150.3906 C182.8125,150.6563 182.125,150.7813 181.3594,150.7813 C179.3125,150.7813 178.0156,149.6875 178.0156,147.9844 L178.0156,146.8906 C178.0156,145.1094 179.2656,143.7969 181,143.7969 C181.5781,143.7969 182.1875,143.9531 182.6563,144.2031 C183.1406,144.4844 183.3125,144.7031 183.4063,145.1094 C183.4688,145.5156 183.5,145.6406 183.6406,145.7656 C183.7813,145.9063 184.0156,146.0156 184.2344,146.0156 C184.5,146.0156 184.7656,145.875 184.9375,145.6563 C185.0469,145.5 185.0781,145.3125 185.0781,144.8906 L185.0781,143.4688 C185.0781,143.0313 185.0625,142.9063 184.9688,142.75 C184.8125,142.4844 184.5313,142.3438 184.2344,142.3438 C183.9375,142.3438 183.7344,142.4375 183.5156,142.75 L183.3438,142.6719 Z " fill="#000000"/><text fill="#000000" font-family="sans-serif" font-size="14" lengthAdjust="spacing" textLength="96" x="195" y="151.8467">UnionIterator</text><line style="stroke:#181818;stroke-width:0.5;" x1="167" x2="293" y1="163" y2="163"/><line style="stroke:#181818;stroke-width:0.5;" x1="167" x2="293" y1="171" y2="171"/></g><!--class ii--><g id="elem_ii"><rect codeLine="7" fill="#F1F1F1" height="48" id="ii" rx="2.5" ry="2.5" style="stroke:#181818;stroke-width:0.5;" width="154" x="329" y="131"/><ellipse cx="344" cy="147" fill="#ADD1B2" rx="11" ry="11" style="stroke:#181818;stroke-width:1.0;"/><path d="M346.3438,142.6719 C345.4063,142.2344 344.8125,142.0938 343.9375,142.0938 C341.3125,142.0938 339.3125,144.1719 339.3125,146.8906 L339.3125,148.0156 C339.3125,150.5938 341.4219,152.4844 344.3125,152.4844 C345.5313,152.4844 346.6875,152.1875 347.4375,151.6406 C348.0156,151.2344 348.3438,150.7813 348.3438,150.3906 C348.3438,149.9375 347.9531,149.5469 347.4844,149.5469 C347.2656,149.5469 347.0625,149.625 346.875,149.8125 C346.4219,150.2969 346.4219,150.2969 346.2344,150.3906 C345.8125,150.6563 345.125,150.7813 344.3594,150.7813 C342.3125,150.7813 341.0156,149.6875 341.0156,147.9844 L341.0156,146.8906 C341.0156,145.1094 342.2656,143.7969 344,143.7969 C344.5781,143.7969 345.1875,143.9531 345.6563,144.2031 C346.1406,144.4844 346.3125,144.7031 346.4063,145.1094 C346.4688,145.5156 346.5,145.6406 346.6406,145.7656 C346.7813,145.9063 347.0156,146.0156 347.2344,146.0156 C347.5,146.0156 347.7656,145.875 347.9375,145.6563 C348.0469,145.5 348.0781,145.3125 348.0781,144.8906 L348.0781,143.4688 C348.0781,143.0313 348.0625,142.9063 347.9688,142.75 C347.8125,142.4844 347.5313,142.3438 347.2344,142.3438 C346.9375,142.3438 346.7344,142.4375 346.5156,142.75 L346.3438,142.6719 Z " fill="#000000"/><text fill="#000000" font-family="sans-serif" font-size="14" lengthAdjust="spacing" textLength="122" x="358" y="151.8467">IntersectIterator</text><line style="stroke:#181818;stroke-width:0.5;" x1="330" x2="482" y1="163" y2="163"/><line style="stroke:#181818;stroke-width:0.5;" x1="330" x2="482" y1="171" y2="171"/></g><!--class fi--><g id="elem_fi"><rect codeLine="8" fill="#F1F1F1" height="48" id="fi" rx="2.5" ry="2.5" style="stroke:#181818;stroke-width:0.5;" width="122" x="518" y="131"/><ellipse cx="533" cy="147" fill="#ADD1B2" rx="11" ry="11" style="stroke:#181818;stroke-width:1.0;"/><path d="M535.3438,142.6719 C534.4063,142.2344 533.8125,142.0938 532.9375,142.0938 C530.3125,142.0938 528.3125,144.1719 528.3125,146.8906 L528.3125,148.0156 C528.3125,150.5938 530.4219,152.4844 533.3125,152.4844 C534.5313,152.4844 535.6875,152.1875 536.4375,151.6406 C537.0156,151.2344 537.3438,150.7813 537.3438,150.3906 C537.3438,149.9375 536.9531,149.5469 536.4844,149.5469 C536.2656,149.5469 536.0625,149.625 535.875,149.8125 C535.4219,150.2969 535.4219,150.2969 535.2344,150.3906 C534.8125,150.6563 534.125,150.7813 533.3594,150.7813 C531.3125,150.7813 530.0156,149.6875 530.0156,147.9844 L530.0156,146.8906 C530.0156,145.1094 531.2656,143.7969 533,143.7969 C533.5781,143.7969 534.1875,143.9531 534.6563,144.2031 C535.1406,144.4844 535.3125,144.7031 535.4063,145.1094 C535.4688,145.5156 535.5,145.6406 535.6406,145.7656 C535.7813,145.9063 536.0156,146.0156 536.2344,146.0156 C536.5,146.0156 536.7656,145.875 536.9375,145.6563 C537.0469,145.5 537.0781,145.3125 537.0781,144.8906 L537.0781,143.4688 C537.0781,143.0313 537.0625,142.9063 536.9688,142.75 C536.8125,142.4844 536.5313,142.3438 536.2344,142.3438 C535.9375,142.3438 535.7344,142.4375 535.5156,142.75 L535.3438,142.6719 Z " fill="#000000"/><text fill="#000000" font-family="sans-serif" font-size="14" lengthAdjust="spacing" textLength="90" x="547" y="151.8467">FieldIterator</text><line style="stroke:#181818;stroke-width:0.5;" x1="519" x2="639" y1="163" y2="163"/><line style="stroke:#181818;stroke-width:0.5;" x1="519" x2="639" y1="171" y2="171"/></g><!--class ni--><g id="elem_ni"><rect codeLine="9" fill="#F1F1F1" height="48" id="ni" rx="2.5" ry="2.5" style="stroke:#181818;stroke-width:0.5;" width="121" x="675.5" y="131"/><ellipse cx="690.5" cy="147" fill="#ADD1B2" rx="11" ry="11" style="stroke:#181818;stroke-width:1.0;"/><path d="M692.8438,142.6719 C691.9063,142.2344 691.3125,142.0938 690.4375,142.0938 C687.8125,142.0938 685.8125,144.1719 685.8125,146.8906 L685.8125,148.0156 C685.8125,150.5938 687.9219,152.4844 690.8125,152.4844 C692.0313,152.4844 693.1875,152.1875 693.9375,151.6406 C694.5156,151.2344 694.8438,150.7813 694.8438,150.3906 C694.8438,149.9375 694.4531,149.5469 693.9844,149.5469 C693.7656,149.5469 693.5625,149.625 693.375,149.8125 C692.9219,150.2969 692.9219,150.2969 692.7344,150.3906 C692.3125,150.6563 691.625,150.7813 690.8594,150.7813 C688.8125,150.7813 687.5156,149.6875 687.5156,147.9844 L687.5156,146.8906 C687.5156,145.1094 688.7656,143.7969 690.5,143.7969 C691.0781,143.7969 691.6875,143.9531 692.1563,144.2031 C692.6406,144.4844 692.8125,144.7031 692.9063,145.1094 C692.9688,145.5156 693,145.6406 693.1406,145.7656 C693.2813,145.9063 693.5156,146.0156 693.7344,146.0156 C694,146.0156 694.2656,145.875 694.4375,145.6563 C694.5469,145.5 694.5781,145.3125 694.5781,144.8906 L694.5781,143.4688 C694.5781,143.0313 694.5625,142.9063 694.4688,142.75 C694.3125,142.4844 694.0313,142.3438 693.7344,142.3438 C693.4375,142.3438 693.2344,142.4375 693.0156,142.75 L692.8438,142.6719 Z " fill="#000000"/><text fill="#000000" font-family="sans-serif" font-size="14" lengthAdjust="spacing" textLength="89" x="704.5" y="151.8467">NearIterator</text><line style="stroke:#181818;stroke-width:0.5;" x1="676.5" x2="795.5" y1="163" y2="163"/><line style="stroke:#181818;stroke-width:0.5;" x1="676.5" x2="795.5" y1="171" y2="171"/></g><!--class ti--><g id="elem_ti"><rect codeLine="10" fill="#F1F1F1" height="48" id="ti" rx="2.5" ry="2.5" style="stroke:#181818;stroke-width:0.5;" width="126" x="832" y="131"/><ellipse cx="847" cy="147" fill="#ADD1B2" rx="11" ry="11" style="stroke:#181818;stroke-width:1.0;"/><path d="M849.3438,142.6719 C848.4063,142.2344 847.8125,142.0938 846.9375,142.0938 C844.3125,142.0938 842.3125,144.1719 842.3125,146.8906 L842.3125,148.0156 C842.3125,150.5938 844.4219,152.4844 847.3125,152.4844 C848.5313,152.4844 849.6875,152.1875 850.4375,151.6406 C851.0156,151.2344 851.3438,150.7813 851.3438,150.3906 C851.3438,149.9375 850.9531,149.5469 850.4844,149.5469 C850.2656,149.5469 850.0625,149.625 849.875,149.8125 C849.4219,150.2969 849.4219,150.2969 849.2344,150.3906 C848.8125,150.6563 848.125,150.7813 847.3594,150.7813 C845.3125,150.7813 844.0156,149.6875 844.0156,147.9844 L844.0156,146.8906 C844.0156,145.1094 845.2656,143.7969 847,143.7969 C847.5781,143.7969 848.1875,143.9531 848.6563,144.2031 C849.1406,144.4844 849.3125,144.7031 849.4063,145.1094 C849.4688,145.5156 849.5,145.6406 849.6406,145.7656 C849.7813,145.9063 850.0156,146.0156 850.2344,146.0156 C850.5,146.0156 850.7656,145.875 850.9375,145.6563 C851.0469,145.5 851.0781,145.3125 851.0781,144.8906 L851.0781,143.4688 C851.0781,143.0313 851.0625,142.9063 850.9688,142.75 C850.8125,142.4844 850.5313,142.3438 850.2344,142.3438 C849.9375,142.3438 849.7344,142.4375 849.5156,142.75 L849.3438,142.6719 Z " fill="#000000"/><text fill="#000000" font-family="sans-serif" font-size="14" lengthAdjust="spacing" textLength="94" x="861" y="151.8467">TopNIterator</text><line style="stroke:#181818;stroke-width:0.5;" x1="833" x2="957" y1="163" y2="163"/><line style="stroke:#181818;stroke-width:0.5;" x1="833" x2="957" y1="171" y2="171"/></g><!--reverse link iter to ri--><g id="link_iter_ri"><path codeLine="12" d="M410.708,60.9 C340.906,78.991 237.659,106.0934 148,131 C142.495,132.5294 136.781,134.1423 131.058,135.7754 " fill="none" id="iter-backto-ri" style="stroke:#181818;stroke-width:1.0;"/><polygon fill="none" points="409.241,54.05,430.357,55.817,412.747,67.603,409.241,54.05" style="stroke:#181818;stroke-width:1.0;"/></g><!--reverse link iter to ui--><g id="link_iter_ui"><path codeLine="13" d="M411.674,74.951 C369.848,93.1503 319.874,114.8945 282.936,130.9669 " fill="none" id="iter-backto-ui" style="stroke:#181818;stroke-width:1.0;"/><polygon fill="none" points="409.109,68.433,430.241,66.872,414.695,81.2705,409.109,68.433" style="stroke:#181818;stroke-width:1.0;"/></g><!--reverse link iter to ii--><g id="link_iter_ii"><path codeLine="14" d="M456.196,87.4617 C444.887,102.4526 432.894,118.3495 423.468,130.8446 " fill="none" id="iter-backto-ii" style="stroke:#181818;stroke-width:1.0;"/><polygon fill="none" points="450.867,82.9017,468.5,71.151,462.044,91.333,450.867,82.9017" style="stroke:#181818;stroke-width:1.0;"/></g><!--reverse link iter to fi--><g id="link_iter_fi"><path codeLine="15" d="M528.221,87.4617 C539.661,102.4526 551.793,118.3495 561.329,130.8446 " fill="none" id="iter-backto-fi" style="stroke:#181818;stroke-width:1.0;"/><polygon fill="none" points="522.342,91.2968,515.773,71.151,533.471,82.8033,522.342,91.2968" style="stroke:#181818;stroke-width:1.0;"/></g><!--reverse link iter to ni--><g id="link_iter_ni"><path codeLine="16" d="M571.876,77.319 C609.755,95.0165 653.809,115.5994 686.733,130.9819 " fill="none" id="iter-backto-ni" style="stroke:#181818;stroke-width:1.0;"/><polygon fill="none" points="568.728,83.5749,553.572,68.767,574.654,70.891,568.728,83.5749" style="stroke:#181818;stroke-width:1.0;"/></g><!--reverse link iter to ti--><g id="link_iter_ti"><path codeLine="17" d="M573.401,62.974 C638.505,81.3567 732.119,107.8048 814,131 C819.767,132.6336 825.764,134.3338 831.77,136.0375 " fill="none" id="iter-backto-ti" style="stroke:#181818;stroke-width:1.0;"/><polygon fill="none" points="571.082,69.593,553.736,57.423,574.886,56.12,571.082,69.593" style="stroke:#181818;stroke-width:1.0;"/></g><!--SRC=[LSx12i8m383XUvuYzAI7lO5dOPSUP3v0g2a4PYjj1eBktTq4QtFy-K8IISebKc1q4vVxk1LfBWwfeco1Bq3q_DJ34LQ0C5Ejw2vCDpDQv4VN93aPMvgD-x7AGUsPvcVXsUwDpJnJCPGQJVdX3Qa0V9y_lOTX_-qVIn_IH-mZzQ7o0G00]--></g></svg>